<?xml version="1.0" encoding="utf-8"?>
<!-- Generator: Adobe Illustrator 23.0.3, SVG Export Plug-In . SVG Version: 6.00 Build 0)  -->
<svg version="1.1" id="Capa_1" xmlns="http://www.w3.org/2000/svg" xmlns:xlink="http://www.w3.org/1999/xlink" x="0px" y="0px"
	 viewBox="0 0 394 145" style="enable-background:new 0 0 394 145;" xml:space="preserve">
<style type="text/css">
	.st0{opacity:0.26;fill:#0080F9;}
	.st1{fill:none;}
	.st2{fill:url(#SVGID_1_);}
	.st3{fill:url(#SVGID_2_);}
	.st4{fill:url(#SVGID_3_);}
	.st5{fill:url(#SVGID_4_);}
	.st6{fill:url(#SVGID_5_);}
	.st7{fill:url(#SVGID_6_);}
	.st8{fill:url(#SVGID_7_);}
	.st9{fill:url(#SVGID_8_);}
	.st10{fill:url(#SVGID_9_);}
	.st11{fill:url(#SVGID_10_);}
	.st12{fill:url(#SVGID_11_);}
	.st13{fill:url(#SVGID_12_);}
	.st14{fill:url(#SVGID_13_);}
	.st15{fill:url(#SVGID_14_);}
	.st16{fill:url(#SVGID_15_);}
	.st17{fill:url(#SVGID_16_);}
	.st18{fill:url(#SVGID_17_);}
	.st19{fill:url(#SVGID_18_);}
	.st20{fill:url(#SVGID_19_);}
	.st21{fill:#FFFFFF;}
	.st22{clip-path:url(#SVGID_21_);}
	.st23{opacity:0.3;fill:url(#SVGID_22_);}
	.st24{opacity:0.45;fill:url(#SVGID_23_);}
	.st25{opacity:0.6;}
	.st26{fill:none;stroke:#FFFFFF;stroke-width:0.49;stroke-miterlimit:10;}
	.st27{opacity:0.6;fill:#FFFFFF;}
	.st28{opacity:0.6;fill:none;stroke:#FFFFFF;stroke-width:0.49;stroke-miterlimit:10;}
	.st29{fill:#0080F9;}
	.st30{fill:#003260;}
	.st31{clip-path:url(#SVGID_27_);}
	.st32{clip-path:url(#SVGID_27_);fill:url(#SVGID_28_);}
	.st33{opacity:0.3;fill:url(#SVGID_29_);}
	.st34{opacity:0.45;fill:url(#SVGID_30_);}
	.st35{clip-path:url(#SVGID_27_);fill:none;}
	
		.st36{clip-path:url(#SVGID_27_);fill:none;stroke:#FFFFFF;stroke-width:2;stroke-linecap:round;stroke-linejoin:round;stroke-miterlimit:10;}
	.st37{fill:url(#SVGID_31_);}
	.st38{fill:url(#SVGID_32_);}
	.st39{fill:url(#SVGID_33_);}
	.st40{fill:url(#SVGID_34_);}
	.st41{fill:url(#SVGID_35_);}
	.st42{fill:url(#SVGID_36_);}
	.st43{fill:url(#SVGID_37_);}
	.st44{fill:url(#SVGID_38_);}
	.st45{fill:url(#SVGID_39_);}
	.st46{fill:url(#SVGID_40_);}
	.st47{fill:url(#SVGID_41_);}
	.st48{fill:url(#SVGID_42_);}
	.st49{fill:url(#SVGID_43_);}
	.st50{fill:url(#SVGID_44_);}
	.st51{fill:url(#SVGID_45_);}
	.st52{fill:url(#SVGID_46_);}
	.st53{fill:url(#SVGID_47_);}
	.st54{fill:url(#SVGID_48_);}
	.st55{fill:url(#SVGID_49_);}
	.st56{clip-path:url(#SVGID_51_);}
	.st57{opacity:0.3;fill:url(#SVGID_52_);}
	.st58{opacity:0.45;fill:url(#SVGID_53_);}
	.st59{fill:#B5B5B5;}
	.st60{fill:none;stroke:url(#SVGID_54_);stroke-width:4;stroke-miterlimit:10;}
	.st61{fill:none;stroke:url(#SVGID_55_);stroke-width:4;stroke-linecap:round;stroke-linejoin:round;stroke-miterlimit:10;}
	.st62{fill:none;stroke:url(#SVGID_56_);stroke-width:4;stroke-linecap:round;stroke-linejoin:round;stroke-miterlimit:10;}
	.st63{fill:#F7F7F7;}
	.st64{fill:url(#SVGID_57_);}
	.st65{fill:url(#SVGID_58_);}
	.st66{fill:url(#SVGID_59_);}
	.st67{clip-path:url(#SVGID_63_);}
	.st68{clip-path:url(#SVGID_63_);fill:url(#SVGID_64_);}
	.st69{opacity:0.3;fill:url(#SVGID_65_);}
	.st70{opacity:0.45;fill:url(#SVGID_66_);}
	.st71{clip-path:url(#SVGID_63_);fill:none;}
	
		.st72{clip-path:url(#SVGID_63_);fill:none;stroke:#FFFFFF;stroke-width:2;stroke-linecap:round;stroke-linejoin:round;stroke-miterlimit:10;}
	.st73{fill:#7EC9FC;}
	.st74{fill:#2E3B5D;}
	.st75{clip-path:url(#SVGID_68_);}
</style>
<g>
	<g>
		<path class="st73" d="M26.36,108.9c0.63-1.29,1.64-4.57,3.6-7.12c9.04-11.76,9.12-20.6-0.11-32.63
			c-5.55-7.24-4.51-16.41,2.39-20.99c6.5-4.32,15.53-2.4,19.66,4.35c3.27,5.34,2.62,10.53-0.98,15.55
			c-10.57,14.76-10.53,19.84,0.06,34.82c3.95,5.59,4.11,11.28-0.01,16.77c-3.96,5.29-9.55,6.67-15.53,4.64
			C29.37,122.22,26.19,117.56,26.36,108.9z"/>
		<path class="st73" d="M54.13,26.14c-0.14,7.41-6.78,13.66-14.31,13.49c-7.66-0.17-13.63-6.46-13.49-14.18
			c0.15-7.81,6.28-13.64,14.14-13.44C48.11,12.2,54.28,18.58,54.13,26.14z"/>
		<path class="st73" d="M81.78,84.36C81.64,91.76,75,98.02,67.47,97.85c-7.66-0.17-13.63-6.46-13.49-14.18
			c0.15-7.81,6.28-13.64,14.14-13.44C75.76,70.41,81.93,76.8,81.78,84.36z"/>
	</g>
	<g>
		<path class="st74" d="M108.56,91.59v11.88c0,0.76-0.14,1.47-0.43,2.13c-0.29,0.66-0.68,1.24-1.17,1.73
			c-0.5,0.49-1.08,0.87-1.76,1.14c-0.68,0.27-1.39,0.41-2.15,0.41c-0.76,0-1.47-0.14-2.13-0.41c-0.66-0.27-1.25-0.65-1.74-1.14
			c-0.5-0.49-0.89-1.06-1.17-1.73c-0.28-0.66-0.43-1.38-0.43-2.13V68.75c0-0.76,0.14-1.46,0.43-2.12c0.29-0.65,0.68-1.22,1.17-1.71
			c0.5-0.49,1.08-0.87,1.74-1.16c0.66-0.28,1.38-0.43,2.13-0.43h0.21h11.6c1.94,0,3.78,0.38,5.51,1.14
			c1.73,0.76,3.24,1.79,4.52,3.08c1.28,1.29,2.29,2.8,3.04,4.52c0.75,1.72,1.12,3.54,1.12,5.46c0,1.95-0.37,3.77-1.12,5.48
			c-0.75,1.71-1.76,3.2-3.04,4.47c-1.28,1.27-2.79,2.27-4.52,3.01c-1.73,0.74-3.57,1.1-5.51,1.1H108.56z M108.56,74.2v6.44h6.33
			c0.36,0,0.72-0.09,1.1-0.28c0.38-0.19,0.72-0.44,1.03-0.76c0.31-0.32,0.56-0.69,0.75-1.1c0.19-0.41,0.29-0.84,0.29-1.26
			c0-0.4-0.1-0.79-0.29-1.16c-0.19-0.37-0.44-0.69-0.75-0.96c-0.31-0.27-0.65-0.49-1.01-0.66c-0.37-0.17-0.73-0.25-1.09-0.25H108.56
			z"/>
		<path class="st74" d="M146.84,97.93L157.62,98c0.76,0,1.47,0.14,2.13,0.43c0.66,0.28,1.24,0.68,1.73,1.17s0.87,1.08,1.16,1.74
			c0.29,0.67,0.43,1.38,0.43,2.13c0,0.76-0.14,1.47-0.43,2.13c-0.28,0.66-0.67,1.25-1.16,1.74s-1.06,0.88-1.73,1.16
			c-0.66,0.27-1.38,0.4-2.13,0.37h-16.29c-0.57,0-1.08-0.07-1.53-0.21c-1.23-0.33-2.22-1.01-2.95-2.03c-0.71-0.93-1.07-2-1.07-3.24
			c0-0.14,0-0.29,0-0.44s0.02-0.3,0.07-0.44V68.75c0-0.76,0.14-1.47,0.43-2.13c0.29-0.66,0.68-1.24,1.17-1.73s1.08-0.87,1.74-1.14
			c0.66-0.27,1.38-0.41,2.13-0.41c0.76,0,1.48,0.14,2.15,0.41c0.68,0.27,1.26,0.65,1.76,1.14c0.5,0.49,0.89,1.06,1.17,1.73
			c0.28,0.66,0.43,1.38,0.43,2.13V97.93z"/>
		<path class="st74" d="M192.06,98.53h-14.27l-2.81,7.04c-0.29,0.74-0.7,1.35-1.25,1.85s-1.16,0.87-1.83,1.1s-1.39,0.35-2.13,0.34
			s-1.48-0.17-2.19-0.48c-0.74-0.31-1.34-0.72-1.81-1.25c-0.48-0.52-0.82-1.11-1.03-1.76c-0.21-0.65-0.3-1.34-0.27-2.06
			c0.04-0.72,0.22-1.44,0.55-2.15l15.05-34.48c0.47-1.07,1.15-1.89,2.03-2.47c0.88-0.58,1.89-0.87,3.02-0.87
			c1.07,0,2.04,0.29,2.92,0.85c0.88,0.57,1.54,1.39,1.99,2.45l14.8,34.48c0.31,0.71,0.49,1.43,0.53,2.15s-0.03,1.41-0.23,2.06
			s-0.53,1.25-1,1.78c-0.46,0.53-1.05,0.96-1.76,1.26c-0.71,0.31-1.44,0.47-2.17,0.48s-1.43-0.11-2.1-0.36s-1.27-0.62-1.81-1.12
			c-0.55-0.5-0.98-1.1-1.32-1.81L192.06,98.53z M182.17,87.54h5.37l-2.74-6.62L182.17,87.54z"/>
		<path class="st74" d="M221.73,84.9v18.57c0,0.76-0.14,1.47-0.43,2.13c-0.29,0.66-0.68,1.24-1.17,1.73
			c-0.5,0.49-1.08,0.87-1.76,1.14c-0.68,0.27-1.39,0.41-2.15,0.41c-0.76,0-1.47-0.14-2.13-0.41c-0.66-0.27-1.25-0.65-1.74-1.14
			c-0.5-0.49-0.89-1.06-1.17-1.73c-0.28-0.66-0.43-1.38-0.43-2.13V68.93c0-0.76,0.14-1.47,0.43-2.13c0.29-0.66,0.68-1.24,1.17-1.73
			c0.5-0.49,1.08-0.87,1.74-1.14c0.66-0.27,1.38-0.41,2.13-0.41h0.07c0.31,0,0.64,0.04,1,0.11c0.76,0.14,1.46,0.43,2.1,0.87
			c0.64,0.44,1.16,0.98,1.57,1.62l15.8,21.45V68.75c0-0.76,0.15-1.47,0.44-2.13c0.3-0.66,0.7-1.24,1.21-1.73
			c0.51-0.49,1.1-0.87,1.78-1.14c0.68-0.27,1.39-0.41,2.15-0.41c0.76,0,1.46,0.14,2.12,0.41c0.65,0.27,1.22,0.65,1.71,1.14
			s0.87,1.06,1.16,1.73c0.29,0.66,0.43,1.38,0.43,2.13v34.72c0,1.23-0.36,2.31-1.07,3.24c-0.71,0.92-1.63,1.57-2.74,1.92
			c-0.21,0.07-0.44,0.13-0.69,0.18c-0.25,0.05-0.5,0.07-0.77,0.07h-0.21h-0.11c-0.76,0-1.46-0.14-2.12-0.43
			c-0.65-0.29-1.22-0.67-1.71-1.16c-0.49-0.49-0.87-1.06-1.16-1.71c-0.29-0.65-0.43-1.36-0.43-2.12v-15.9l9.25,12.56
			c0.45,0.69,0.74,1.46,0.85,2.33c0.12,0.87,0.09,1.71-0.09,2.53c-0.18,0.82-0.5,1.56-0.98,2.22s-1.09,1.14-1.85,1.42
			c-0.24,0.07-0.47,0.13-0.71,0.18c-0.24,0.05-0.49,0.07-0.75,0.07h-0.21h-0.11c-0.36-0.02-0.74-0.08-1.14-0.18s-0.8-0.23-1.19-0.41
			s-0.76-0.39-1.12-0.64c-0.36-0.25-0.64-0.54-0.85-0.87L221.73,84.9z"/>
		<path class="st74" d="M266.81,84.9v18.57c0,0.76-0.14,1.47-0.43,2.13c-0.29,0.66-0.68,1.24-1.17,1.73
			c-0.5,0.49-1.08,0.87-1.76,1.14c-0.68,0.27-1.39,0.41-2.15,0.41c-0.76,0-1.47-0.14-2.13-0.41c-0.66-0.27-1.25-0.65-1.74-1.14
			c-0.5-0.49-0.89-1.06-1.17-1.73c-0.28-0.66-0.43-1.38-0.43-2.13V68.93c0-0.76,0.14-1.47,0.43-2.13c0.29-0.66,0.68-1.24,1.17-1.73
			c0.5-0.49,1.08-0.87,1.74-1.14c0.66-0.27,1.38-0.41,2.13-0.41h0.07c0.31,0,0.64,0.04,1,0.11c0.76,0.14,1.46,0.43,2.1,0.87
			c0.64,0.44,1.16,0.98,1.57,1.62l15.8,21.45V68.75c0-0.76,0.15-1.47,0.44-2.13c0.3-0.66,0.7-1.24,1.21-1.73
			c0.51-0.49,1.1-0.87,1.78-1.14c0.68-0.27,1.39-0.41,2.15-0.41c0.76,0,1.46,0.14,2.12,0.41c0.65,0.27,1.22,0.65,1.71,1.14
			s0.87,1.06,1.16,1.73c0.29,0.66,0.43,1.38,0.43,2.13v34.72c0,1.23-0.36,2.31-1.07,3.24c-0.71,0.92-1.63,1.57-2.74,1.92
			c-0.21,0.07-0.44,0.13-0.69,0.18c-0.25,0.05-0.5,0.07-0.77,0.07h-0.21h-0.11c-0.76,0-1.46-0.14-2.12-0.43
			c-0.65-0.29-1.22-0.67-1.71-1.16c-0.49-0.49-0.87-1.06-1.16-1.71c-0.29-0.65-0.43-1.36-0.43-2.12v-15.9l9.25,12.56
			c0.45,0.69,0.74,1.46,0.85,2.33c0.12,0.87,0.09,1.71-0.09,2.53c-0.18,0.82-0.5,1.56-0.98,2.22s-1.09,1.14-1.85,1.42
			c-0.24,0.07-0.47,0.13-0.71,0.18c-0.24,0.05-0.49,0.07-0.75,0.07h-0.21h-0.11c-0.36-0.02-0.74-0.08-1.14-0.18s-0.8-0.23-1.19-0.41
			s-0.76-0.39-1.12-0.64c-0.36-0.25-0.64-0.54-0.85-0.87L266.81,84.9z"/>
		<path class="st74" d="M305.95,108.88c-0.71-0.07-1.38-0.25-1.99-0.53c-0.62-0.29-1.15-0.66-1.6-1.14
			c-0.45-0.47-0.81-1.03-1.07-1.65c-0.26-0.63-0.39-1.31-0.39-2.05V68.82c0-0.74,0.14-1.44,0.43-2.1c0.29-0.66,0.67-1.25,1.16-1.74
			c0.49-0.5,1.06-0.89,1.72-1.19s1.39-0.45,2.17-0.45h17.01c0.76,0,1.47,0.14,2.13,0.43c0.66,0.29,1.24,0.68,1.73,1.17
			c0.49,0.5,0.87,1.08,1.14,1.74c0.27,0.66,0.41,1.38,0.41,2.13s-0.14,1.48-0.41,2.15c-0.27,0.68-0.65,1.26-1.14,1.76
			c-0.49,0.5-1.06,0.89-1.73,1.17c-0.67,0.28-1.38,0.43-2.13,0.43h-11.49v6.55h7.83c0.76-0.02,1.47,0.1,2.13,0.37
			c0.66,0.27,1.25,0.66,1.74,1.16s0.9,1.08,1.19,1.74c0.3,0.67,0.44,1.38,0.44,2.13c0,0.76-0.15,1.46-0.44,2.12
			c-0.3,0.65-0.69,1.21-1.19,1.67c-0.5,0.46-1.08,0.83-1.74,1.09s-1.38,0.39-2.13,0.39h-7.83v6.37h11.49c0.76,0,1.47,0.15,2.13,0.44
			c0.66,0.3,1.24,0.69,1.73,1.19c0.49,0.5,0.87,1.08,1.14,1.76c0.27,0.68,0.41,1.39,0.41,2.15c0,0.76-0.14,1.47-0.41,2.13
			c-0.27,0.66-0.65,1.25-1.14,1.74c-0.49,0.5-1.06,0.88-1.73,1.16c-0.67,0.27-1.38,0.4-2.13,0.37H305.95z"/>
		<path class="st74" d="M366.29,77.54c0,1.28-0.17,2.51-0.5,3.68c-0.33,1.17-0.79,2.28-1.39,3.31c-0.59,1.03-1.3,1.97-2.13,2.81
			s-1.75,1.57-2.77,2.19l5.94,11.24c0.38,0.67,0.6,1.35,0.68,2.06c0.07,0.71,0.01,1.4-0.2,2.06c-0.2,0.66-0.52,1.28-0.96,1.85
			c-0.44,0.57-0.98,1.03-1.62,1.39c-0.66,0.38-1.36,0.61-2.08,0.69c-0.72,0.08-1.42,0.04-2.08-0.14c-0.67-0.18-1.28-0.48-1.85-0.91
			c-0.57-0.43-1.04-0.97-1.42-1.64l-7.79-14.55h-2.31v11.88c0,0.76-0.14,1.47-0.43,2.13c-0.29,0.66-0.68,1.24-1.17,1.73
			c-0.5,0.49-1.08,0.87-1.76,1.14c-0.68,0.27-1.39,0.41-2.15,0.41c-0.76,0-1.47-0.14-2.13-0.41c-0.66-0.27-1.25-0.65-1.74-1.14
			c-0.5-0.49-0.89-1.06-1.17-1.73c-0.28-0.66-0.43-1.38-0.43-2.13V68.75c0-0.76,0.14-1.46,0.43-2.12c0.29-0.65,0.68-1.22,1.17-1.71
			c0.5-0.49,1.08-0.87,1.74-1.16c0.66-0.28,1.38-0.43,2.13-0.43h0.21h11.6c1.94,0,3.78,0.38,5.51,1.14
			c1.73,0.76,3.24,1.79,4.52,3.08c1.28,1.29,2.29,2.8,3.04,4.52C365.91,73.8,366.29,75.62,366.29,77.54z M345.79,74.2v6.44h6.33
			c0.36,0,0.72-0.09,1.1-0.28c0.38-0.19,0.72-0.44,1.03-0.76c0.31-0.32,0.56-0.69,0.75-1.1c0.19-0.41,0.29-0.84,0.29-1.26
			c0-0.4-0.1-0.79-0.29-1.16c-0.19-0.37-0.44-0.69-0.75-0.96c-0.31-0.27-0.65-0.49-1.01-0.66c-0.37-0.17-0.73-0.25-1.09-0.25H345.79
			z"/>
	</g>
</g>
</svg>
