<?xml version="1.0" encoding="utf-8"?>
<!-- Generator: Adobe Illustrator 23.0.3, SVG Export Plug-In . SVG Version: 6.00 Build 0)  -->
<svg version="1.1" id="Capa_1" xmlns="http://www.w3.org/2000/svg" xmlns:xlink="http://www.w3.org/1999/xlink" x="0px" y="0px"
	 viewBox="0 0 87 166" style="enable-background:new 0 0 87 166;" xml:space="preserve">
<style type="text/css">
	.st0{opacity:0.26;fill:#0080F9;}
	.st1{fill:none;}
	.st2{fill:url(#SVGID_1_);}
	.st3{fill:url(#SVGID_2_);}
	.st4{fill:url(#SVGID_3_);}
	.st5{fill:url(#SVGID_4_);}
	.st6{fill:url(#SVGID_5_);}
	.st7{fill:url(#SVGID_6_);}
	.st8{fill:url(#SVGID_7_);}
	.st9{fill:url(#SVGID_8_);}
	.st10{fill:url(#SVGID_9_);}
	.st11{fill:url(#SVGID_10_);}
	.st12{fill:url(#SVGID_11_);}
	.st13{fill:url(#SVGID_12_);}
	.st14{fill:url(#SVGID_13_);}
	.st15{fill:url(#SVGID_14_);}
	.st16{fill:url(#SVGID_15_);}
	.st17{fill:url(#SVGID_16_);}
	.st18{fill:url(#SVGID_17_);}
	.st19{fill:url(#SVGID_18_);}
	.st20{fill:url(#SVGID_19_);}
	.st21{fill:#FFFFFF;}
	.st22{clip-path:url(#SVGID_21_);}
	.st23{opacity:0.3;fill:url(#SVGID_22_);}
	.st24{opacity:0.45;fill:url(#SVGID_23_);}
	.st25{opacity:0.6;}
	.st26{fill:none;stroke:#FFFFFF;stroke-width:0.49;stroke-miterlimit:10;}
	.st27{opacity:0.6;fill:#FFFFFF;}
	.st28{opacity:0.6;fill:none;stroke:#FFFFFF;stroke-width:0.49;stroke-miterlimit:10;}
	.st29{fill:#0080F9;}
	.st30{fill:#003260;}
	.st31{clip-path:url(#SVGID_27_);}
	.st32{clip-path:url(#SVGID_27_);fill:url(#SVGID_28_);}
	.st33{opacity:0.3;fill:url(#SVGID_29_);}
	.st34{opacity:0.45;fill:url(#SVGID_30_);}
	.st35{clip-path:url(#SVGID_27_);fill:none;}
	
		.st36{clip-path:url(#SVGID_27_);fill:none;stroke:#FFFFFF;stroke-width:2;stroke-linecap:round;stroke-linejoin:round;stroke-miterlimit:10;}
	.st37{fill:url(#SVGID_31_);}
	.st38{fill:url(#SVGID_32_);}
	.st39{fill:url(#SVGID_33_);}
	.st40{fill:url(#SVGID_34_);}
	.st41{fill:url(#SVGID_35_);}
	.st42{fill:url(#SVGID_36_);}
	.st43{fill:url(#SVGID_37_);}
	.st44{fill:url(#SVGID_38_);}
	.st45{fill:url(#SVGID_39_);}
	.st46{fill:url(#SVGID_40_);}
	.st47{fill:url(#SVGID_41_);}
	.st48{fill:url(#SVGID_42_);}
	.st49{fill:url(#SVGID_43_);}
	.st50{fill:url(#SVGID_44_);}
	.st51{fill:url(#SVGID_45_);}
	.st52{fill:url(#SVGID_46_);}
	.st53{fill:url(#SVGID_47_);}
	.st54{fill:url(#SVGID_48_);}
	.st55{fill:url(#SVGID_49_);}
	.st56{clip-path:url(#SVGID_51_);}
	.st57{opacity:0.3;fill:url(#SVGID_52_);}
	.st58{opacity:0.45;fill:url(#SVGID_53_);}
	.st59{fill:#B5B5B5;}
	.st60{fill:none;stroke:url(#SVGID_54_);stroke-width:4;stroke-miterlimit:10;}
	.st61{fill:none;stroke:url(#SVGID_55_);stroke-width:4;stroke-linecap:round;stroke-linejoin:round;stroke-miterlimit:10;}
	.st62{fill:none;stroke:url(#SVGID_56_);stroke-width:4;stroke-linecap:round;stroke-linejoin:round;stroke-miterlimit:10;}
	.st63{fill:#F7F7F7;}
	.st64{fill:url(#SVGID_57_);}
	.st65{fill:url(#SVGID_58_);}
	.st66{fill:url(#SVGID_59_);}
	.st67{clip-path:url(#SVGID_63_);}
	.st68{clip-path:url(#SVGID_63_);fill:url(#SVGID_64_);}
	.st69{opacity:0.3;fill:url(#SVGID_65_);}
	.st70{opacity:0.45;fill:url(#SVGID_66_);}
	.st71{clip-path:url(#SVGID_63_);fill:none;}
	
		.st72{clip-path:url(#SVGID_63_);fill:none;stroke:#FFFFFF;stroke-width:2;stroke-linecap:round;stroke-linejoin:round;stroke-miterlimit:10;}
	.st73{fill:#7EC9FC;}
	.st74{fill:#2E3B5D;}
	.st75{clip-path:url(#SVGID_68_);}
</style>
<g>
	<path class="st73" d="M9.77,139.77c0.86-1.76,2.23-6.21,4.89-9.68c12.28-15.99,12.4-28-0.15-44.35c-7.55-9.84-6.13-22.3,3.25-28.53
		c8.83-5.87,21.11-3.26,26.72,5.91c4.44,7.25,3.56,14.31-1.33,21.14c-14.36,20.07-14.31,26.96,0.09,47.33
		c5.37,7.6,5.58,15.33-0.01,22.79c-5.38,7.19-12.98,9.07-21.11,6.3C13.86,157.87,9.53,151.53,9.77,139.77z"/>
	<path class="st73" d="M47.51,27.29c-0.2,10.06-9.22,18.57-19.45,18.34C17.65,45.39,9.53,36.85,9.73,26.34
		c0.2-10.62,8.54-18.54,19.22-18.27C39.32,8.33,47.71,17.02,47.51,27.29z"/>
	<path class="st73" d="M85.09,106.41c-0.2,10.06-9.22,18.57-19.45,18.34c-10.41-0.24-18.53-8.77-18.33-19.28
		c0.2-10.62,8.54-18.54,19.22-18.27C76.91,87.46,85.3,96.14,85.09,106.41z"/>
</g>
</svg>
