<?xml version="1.0" encoding="utf-8"?>
<!-- Generator: Adobe Illustrator 23.0.3, SVG Export Plug-In . SVG Version: 6.00 Build 0)  -->
<svg version="1.1" id="Capa_1" xmlns="http://www.w3.org/2000/svg" xmlns:xlink="http://www.w3.org/1999/xlink" x="0px" y="0px"
	 viewBox="0 0 616.18 771.93" style="enable-background:new 0 0 616.18 771.93;" xml:space="preserve">
<style type="text/css">
	.st0{fill:#F7F7FC;}
	.st1{fill:#FFFFFF;}
	.st2{fill:none;stroke:#969696;stroke-width:0.5;stroke-miterlimit:10;}
	.st3{fill:#487EF1;}
	.st4{fill:#A7AFBC;}
	.st5{fill:#79BD7D;}
	.st6{opacity:0.26;fill:#0080F9;}
	.st7{fill:none;}
	.st8{fill:url(#SVGID_1_);}
	.st9{fill:url(#SVGID_2_);}
	.st10{fill:url(#SVGID_3_);}
	.st11{fill:url(#SVGID_4_);}
	.st12{fill:url(#SVGID_5_);}
	.st13{fill:url(#SVGID_6_);}
	.st14{fill:url(#SVGID_7_);}
	.st15{fill:url(#SVGID_8_);}
	.st16{fill:url(#SVGID_9_);}
	.st17{fill:url(#SVGID_10_);}
	.st18{fill:url(#SVGID_11_);}
	.st19{fill:url(#SVGID_12_);}
	.st20{fill:url(#SVGID_13_);}
	.st21{fill:url(#SVGID_14_);}
	.st22{fill:url(#SVGID_15_);}
	.st23{fill:url(#SVGID_16_);}
	.st24{fill:url(#SVGID_17_);}
	.st25{fill:url(#SVGID_18_);}
	.st26{fill:url(#SVGID_19_);}
	.st27{clip-path:url(#SVGID_21_);}
	.st28{opacity:0.3;fill:url(#SVGID_22_);}
	.st29{opacity:0.45;fill:url(#SVGID_23_);}
	.st30{opacity:0.6;}
	.st31{fill:none;stroke:#FFFFFF;stroke-width:0.49;stroke-miterlimit:10;}
	.st32{opacity:0.6;fill:#FFFFFF;}
	.st33{opacity:0.6;fill:none;stroke:#FFFFFF;stroke-width:0.49;stroke-miterlimit:10;}
	.st34{fill:#003260;}
	.st35{fill:#B5B5B5;}
	.st36{fill:none;stroke:url(#SVGID_24_);stroke-width:4;stroke-miterlimit:10;}
	.st37{fill:none;stroke:url(#SVGID_25_);stroke-width:4;stroke-linecap:round;stroke-linejoin:round;stroke-miterlimit:10;}
	.st38{fill:none;stroke:url(#SVGID_26_);stroke-width:4;stroke-linecap:round;stroke-linejoin:round;stroke-miterlimit:10;}
	.st39{fill:#F7F7F7;}
	.st40{clip-path:url(#SVGID_29_);fill:none;}
	.st41{opacity:0.3;clip-path:url(#SVGID_29_);fill:url(#SVGID_30_);}
	.st42{opacity:0.45;clip-path:url(#SVGID_29_);fill:url(#SVGID_31_);}
	.st43{opacity:0.6;clip-path:url(#SVGID_29_);fill:url(#SVGID_32_);}
	.st44{opacity:0.6;clip-path:url(#SVGID_29_);fill:url(#SVGID_33_);}
	.st45{opacity:0.4;clip-path:url(#SVGID_29_);}
	.st46{opacity:0.15;clip-path:url(#SVGID_29_);fill:#FFFFFF;}
	.st47{opacity:0.6;clip-path:url(#SVGID_29_);}
	.st48{clip-path:url(#SVGID_29_);}
	.st49{opacity:0.6;clip-path:url(#SVGID_29_);fill:#FFFFFF;}
	.st50{opacity:0.6;clip-path:url(#SVGID_29_);fill:none;stroke:#FFFFFF;stroke-width:0.49;stroke-miterlimit:10;}
	.st51{clip-path:url(#SVGID_36_);fill:none;}
	.st52{opacity:0.3;clip-path:url(#SVGID_36_);fill:url(#SVGID_37_);}
	.st53{opacity:0.45;clip-path:url(#SVGID_36_);fill:url(#SVGID_38_);}
	.st54{opacity:0.6;clip-path:url(#SVGID_36_);fill:url(#SVGID_39_);}
	.st55{opacity:0.6;clip-path:url(#SVGID_36_);fill:url(#SVGID_40_);}
	.st56{opacity:0.4;clip-path:url(#SVGID_36_);}
	.st57{opacity:0.15;clip-path:url(#SVGID_36_);fill:#FFFFFF;}
	.st58{opacity:0.6;clip-path:url(#SVGID_36_);}
	.st59{clip-path:url(#SVGID_36_);}
	.st60{opacity:0.6;clip-path:url(#SVGID_36_);fill:#FFFFFF;}
	.st61{opacity:0.6;clip-path:url(#SVGID_36_);fill:none;stroke:#FFFFFF;stroke-width:0.49;stroke-miterlimit:10;}
	.st62{fill:none;stroke:#FFFFFF;stroke-miterlimit:10;}
	.st63{clip-path:url(#SVGID_42_);}
	.st64{fill:#EBEFF5;}
	.st65{fill:#2E3B5D;}
	.st66{fill:none;stroke:#FFFFFF;stroke-width:0.5;stroke-linecap:round;stroke-miterlimit:10;}
	.st67{fill:none;stroke:#FFFFFF;stroke-width:0.5;stroke-linecap:round;stroke-linejoin:round;stroke-miterlimit:10;}
	.st68{clip-path:url(#SVGID_44_);fill:#2E3B5D;}
	.st69{clip-path:url(#SVGID_44_);}
	.st70{fill:none;stroke:#EBEFF5;stroke-miterlimit:10;}
	.st71{opacity:0.3;clip-path:url(#SVGID_46_);fill:url(#SVGID_47_);}
	.st72{opacity:0.45;clip-path:url(#SVGID_46_);fill:url(#SVGID_48_);}
	.st73{fill:none;stroke:#2E3B5D;stroke-width:2;stroke-linecap:round;stroke-linejoin:round;stroke-miterlimit:10;}
	.st74{fill:url(#SVGID_49_);}
	.st75{fill:url(#SVGID_50_);}
	.st76{fill:url(#SVGID_51_);}
	.st77{clip-path:url(#SVGID_53_);}
	.st78{clip-path:url(#SVGID_55_);fill:#2E3B5D;}
	.st79{clip-path:url(#SVGID_55_);}
	.st80{fill:#EBEFF5;stroke:#EBEFF5;stroke-miterlimit:10;}
	.st81{opacity:0.3;clip-path:url(#SVGID_57_);fill:url(#SVGID_58_);}
	.st82{opacity:0.45;clip-path:url(#SVGID_57_);fill:url(#SVGID_59_);}
	.st83{fill:url(#SVGID_60_);}
	.st84{fill:url(#SVGID_61_);}
	.st85{fill:url(#SVGID_62_);}
	.st86{fill:#B7B6B6;}
	.st87{clip-path:url(#SVGID_64_);}
	.st88{clip-path:url(#SVGID_66_);fill:#2E3B5D;}
	.st89{clip-path:url(#SVGID_66_);}
	.st90{opacity:0.3;clip-path:url(#SVGID_68_);fill:url(#SVGID_69_);}
	.st91{opacity:0.45;clip-path:url(#SVGID_68_);fill:url(#SVGID_70_);}
	.st92{clip-path:url(#SVGID_72_);}
	.st93{clip-path:url(#SVGID_74_);fill:#2E3B5D;}
	.st94{clip-path:url(#SVGID_74_);}
	.st95{opacity:0.3;clip-path:url(#SVGID_76_);fill:url(#SVGID_77_);}
	.st96{opacity:0.45;clip-path:url(#SVGID_76_);fill:url(#SVGID_78_);}
	.st97{fill:url(#SVGID_79_);}
	.st98{fill:url(#SVGID_80_);}
	.st99{fill:url(#SVGID_81_);}
	.st100{fill:none;stroke:#91C406;stroke-width:0.75;stroke-linecap:round;stroke-linejoin:round;}
	.st101{fill:#91C406;}
	.st102{fill:none;stroke:#C12B08;stroke-width:0.75;stroke-linecap:round;stroke-linejoin:round;}
	.st103{fill:#C12B08;}
	.st104{fill:none;stroke:#E0B605;stroke-width:0.75;stroke-linecap:round;stroke-linejoin:round;}
	.st105{fill:#E0B605;}
	.st106{fill:none;stroke:#606060;stroke-miterlimit:10;}
	.st107{opacity:0.3;clip-path:url(#SVGID_83_);fill:url(#SVGID_84_);}
	.st108{opacity:0.45;clip-path:url(#SVGID_83_);fill:url(#SVGID_85_);}
	.st109{fill:url(#SVGID_86_);}
	.st110{fill:url(#SVGID_87_);}
	.st111{fill:url(#SVGID_88_);}
	.st112{fill:url(#SVGID_89_);}
	.st113{fill:url(#SVGID_90_);}
	.st114{fill:url(#SVGID_91_);}
	.st115{fill:url(#SVGID_92_);}
	.st116{fill:url(#SVGID_93_);}
	.st117{fill:url(#SVGID_94_);}
	.st118{fill:url(#SVGID_95_);}
	.st119{fill:none;stroke:#FFFFFF;stroke-width:2;stroke-linecap:round;stroke-linejoin:round;}
	.st120{fill:url(#SVGID_96_);}
	.st121{fill:#666666;}
	.st122{fill:none;stroke:#333333;stroke-miterlimit:10;}
	.st123{fill:#ED1C24;}
	.st124{fill:none;stroke:#666666;stroke-miterlimit:10;}
	.st125{opacity:0.4;fill:#EAEA1F;}
	.st126{clip-path:url(#SVGID_98_);}
	.st127{clip-path:url(#SVGID_100_);fill:#2E3B5D;}
	.st128{clip-path:url(#SVGID_100_);}
	.st129{fill:url(#SVGID_101_);}
	.st130{fill:url(#SVGID_102_);}
	.st131{fill:url(#SVGID_103_);}
	.st132{opacity:0.3;clip-path:url(#SVGID_105_);fill:url(#SVGID_106_);}
	.st133{opacity:0.45;clip-path:url(#SVGID_105_);fill:url(#SVGID_107_);}
	.st134{clip-path:url(#SVGID_109_);}
	.st135{clip-path:url(#SVGID_111_);fill:#2E3B5D;}
	.st136{clip-path:url(#SVGID_111_);}
	.st137{opacity:0.3;clip-path:url(#SVGID_113_);fill:url(#SVGID_114_);}
	.st138{opacity:0.45;clip-path:url(#SVGID_113_);fill:url(#SVGID_115_);}
	.st139{fill:url(#SVGID_116_);}
	.st140{fill:url(#SVGID_117_);}
	.st141{fill:url(#SVGID_118_);}
	.st142{fill:url(#SVGID_119_);}
	.st143{fill:url(#SVGID_120_);}
	.st144{fill:url(#SVGID_121_);}
	.st145{fill:url(#SVGID_122_);}
	.st146{fill:url(#SVGID_123_);}
	.st147{fill:url(#SVGID_124_);}
	.st148{fill:url(#SVGID_125_);}
	.st149{fill:url(#SVGID_126_);}
	.st150{fill:url(#SVGID_127_);}
	.st151{fill:url(#SVGID_128_);}
	.st152{fill:url(#SVGID_129_);}
	.st153{opacity:0.5;fill:#C2C2C6;}
	.st154{fill:#D68E0D;}
	.st155{fill:#D6661A;}
	.st156{clip-path:url(#SVGID_131_);}
	.st157{clip-path:url(#SVGID_133_);fill:#2E3B5D;}
	.st158{clip-path:url(#SVGID_133_);}
	.st159{fill:url(#SVGID_134_);}
	.st160{fill:url(#SVGID_135_);}
	.st161{fill:url(#SVGID_136_);}
	.st162{opacity:0.3;clip-path:url(#SVGID_138_);fill:url(#SVGID_139_);}
	.st163{opacity:0.45;clip-path:url(#SVGID_138_);fill:url(#SVGID_140_);}
	.st164{clip-path:url(#SVGID_142_);}
	.st165{clip-path:url(#SVGID_144_);fill:#2E3B5D;}
	.st166{clip-path:url(#SVGID_144_);}
	.st167{fill:url(#SVGID_145_);}
	.st168{fill:url(#SVGID_146_);}
	.st169{fill:url(#SVGID_147_);}
	.st170{fill:url(#SVGID_148_);}
	.st171{fill:url(#SVGID_149_);}
	.st172{fill:url(#SVGID_150_);}
	.st173{fill:url(#SVGID_151_);}
	.st174{fill:url(#SVGID_152_);}
	.st175{fill:url(#SVGID_153_);}
	.st176{fill:url(#SVGID_154_);}
	.st177{fill:url(#SVGID_155_);}
	.st178{fill:none;stroke:#606060;stroke-width:0.5;stroke-miterlimit:10;}
	.st179{fill:url(#SVGID_156_);}
	.st180{fill:url(#SVGID_157_);}
	.st181{fill:url(#SVGID_158_);}
	.st182{fill:url(#SVGID_159_);}
	.st183{fill:url(#SVGID_160_);}
	.st184{fill:url(#SVGID_161_);}
	.st185{fill:url(#SVGID_162_);}
	.st186{fill:url(#SVGID_163_);}
	.st187{fill:url(#SVGID_164_);}
	.st188{fill:url(#SVGID_165_);}
	.st189{fill:url(#SVGID_166_);}
	.st190{fill:url(#SVGID_167_);}
	.st191{fill:url(#SVGID_168_);}
	.st192{fill:url(#SVGID_169_);}
	.st193{opacity:0.3;clip-path:url(#SVGID_171_);fill:url(#SVGID_172_);}
	.st194{opacity:0.45;clip-path:url(#SVGID_171_);fill:url(#SVGID_173_);}
	.st195{fill:none;stroke:#1E4B9B;stroke-miterlimit:10;}
	.st196{clip-path:url(#SVGID_175_);}
	.st197{clip-path:url(#SVGID_177_);fill:#2E3B5D;}
	.st198{clip-path:url(#SVGID_177_);}
	.st199{fill:url(#SVGID_178_);}
	.st200{fill:url(#SVGID_179_);}
	.st201{fill:url(#SVGID_180_);}
	.st202{opacity:0.3;clip-path:url(#SVGID_182_);fill:url(#SVGID_183_);}
	.st203{opacity:0.45;clip-path:url(#SVGID_182_);fill:url(#SVGID_184_);}
	.st204{fill:#7B629E;}
	.st205{fill:none;stroke:#2E3B5D;stroke-miterlimit:10;}
	.st206{fill:url(#SVGID_185_);}
	.st207{fill:none;stroke:url(#SVGID_186_);stroke-miterlimit:10;}
	.st208{fill:none;stroke:url(#SVGID_187_);stroke-miterlimit:10;}
	.st209{fill:url(#SVGID_188_);}
	.st210{fill:none;stroke:url(#SVGID_189_);stroke-miterlimit:10;}
	.st211{fill:none;stroke:url(#SVGID_190_);stroke-miterlimit:10;}
	.st212{fill:url(#SVGID_191_);}
	.st213{fill:none;stroke:url(#SVGID_192_);stroke-miterlimit:10;}
	.st214{fill:none;stroke:url(#SVGID_193_);stroke-miterlimit:10;}
	.st215{fill:url(#SVGID_194_);}
	.st216{fill:none;stroke:url(#SVGID_195_);stroke-miterlimit:10;}
	.st217{fill:none;stroke:url(#SVGID_196_);stroke-miterlimit:10;}
	.st218{fill:url(#SVGID_197_);}
	.st219{fill:none;stroke:url(#SVGID_198_);stroke-miterlimit:10;}
	.st220{fill:none;stroke:url(#SVGID_199_);stroke-miterlimit:10;}
	.st221{fill:url(#SVGID_200_);}
	.st222{fill:none;stroke:url(#SVGID_201_);stroke-miterlimit:10;}
	.st223{fill:none;stroke:url(#SVGID_202_);stroke-miterlimit:10;}
	.st224{fill:url(#SVGID_203_);}
	.st225{fill:none;stroke:url(#SVGID_204_);stroke-miterlimit:10;}
	.st226{fill:none;stroke:url(#SVGID_205_);stroke-miterlimit:10;}
	.st227{fill:url(#SVGID_206_);}
	.st228{opacity:0.1;fill:url(#SVGID_207_);}
	.st229{fill:url(#SVGID_208_);}
	.st230{opacity:0.1;fill:url(#SVGID_209_);}
	.st231{fill:url(#SVGID_210_);}
	.st232{opacity:0.1;fill:url(#SVGID_211_);}
	.st233{fill:url(#SVGID_212_);}
	.st234{opacity:0.1;fill:url(#SVGID_213_);}
	.st235{fill:url(#SVGID_214_);}
	.st236{opacity:0.1;fill:url(#SVGID_215_);}
	.st237{fill:url(#SVGID_216_);}
	.st238{opacity:0.1;fill:url(#SVGID_217_);}
	.st239{fill:url(#SVGID_218_);}
	.st240{opacity:0.1;fill:url(#SVGID_219_);}
	.st241{fill:url(#SVGID_220_);}
	.st242{opacity:0.1;fill:url(#SVGID_221_);}
	.st243{fill:url(#SVGID_222_);}
	.st244{opacity:0.1;fill:url(#SVGID_223_);}
	.st245{fill:url(#SVGID_224_);}
	.st246{opacity:0.1;fill:url(#SVGID_225_);}
	.st247{fill:url(#SVGID_226_);}
	.st248{opacity:0.1;fill:url(#SVGID_227_);}
	.st249{opacity:0.1;fill:url(#SVGID_228_);}
	.st250{opacity:0.1;fill:url(#SVGID_229_);}
	.st251{opacity:0.1;fill:url(#SVGID_230_);}
	.st252{opacity:0.1;fill:url(#SVGID_231_);}
	.st253{opacity:0.1;fill:url(#SVGID_232_);}
	.st254{opacity:0.1;fill:url(#SVGID_233_);}
	.st255{opacity:0.1;fill:url(#SVGID_234_);}
	.st256{opacity:0.1;fill:url(#SVGID_235_);}
	.st257{opacity:0.1;fill:url(#SVGID_236_);}
	.st258{fill:none;stroke:#FFFFFF;stroke-width:2;stroke-linecap:round;stroke-linejoin:round;stroke-miterlimit:10;}
	.st259{fill:#A6C5D4;}
	.st260{opacity:0.4;}
	.st261{fill:none;stroke:#3A66FA;stroke-miterlimit:10;}
	.st262{fill:none;stroke:#7CD0D4;stroke-miterlimit:10;}
	.st263{fill:#7CD0D4;}
	.st264{fill:#3A66FA;}
	.st265{fill:url(#SVGID_237_);}
	.st266{opacity:0.3;clip-path:url(#SVGID_239_);fill:url(#SVGID_240_);}
	.st267{opacity:0.45;clip-path:url(#SVGID_239_);fill:url(#SVGID_241_);}
	.st268{opacity:0.3;clip-path:url(#SVGID_243_);fill:url(#SVGID_244_);}
	.st269{opacity:0.45;clip-path:url(#SVGID_243_);fill:url(#SVGID_245_);}
	.st270{opacity:0.3;clip-path:url(#SVGID_247_);fill:url(#SVGID_248_);}
	.st271{opacity:0.45;clip-path:url(#SVGID_247_);fill:url(#SVGID_249_);}
	.st272{fill:#487EF1;stroke:#FFFFFF;stroke-miterlimit:10;}
	.st273{opacity:0.9;fill:#DB8A2A;}
	.st274{fill:none;stroke:url(#SVGID_250_);stroke-width:2;stroke-miterlimit:10;}
	.st275{opacity:0.9;fill:url(#SVGID_251_);}
	.st276{fill:none;stroke:url(#SVGID_252_);stroke-width:2;stroke-miterlimit:10;}
	.st277{opacity:0.9;fill:url(#SVGID_253_);}
	.st278{fill:none;stroke:url(#SVGID_254_);stroke-width:2;stroke-miterlimit:10;}
	.st279{opacity:0.9;fill:url(#SVGID_255_);}
	.st280{fill:none;stroke:url(#SVGID_256_);stroke-width:2;stroke-miterlimit:10;}
	.st281{opacity:0.9;}
	.st282{opacity:0.9;fill:#79BD7D;}
	.st283{fill:#DB8A2A;}
	.st284{clip-path:url(#SVGID_258_);}
	.st285{clip-path:url(#SVGID_260_);fill:#2E3B5D;}
	.st286{clip-path:url(#SVGID_260_);}
	.st287{fill:url(#SVGID_261_);}
	.st288{fill:url(#SVGID_262_);}
	.st289{fill:url(#SVGID_263_);}
	.st290{opacity:0.3;clip-path:url(#SVGID_265_);fill:url(#SVGID_266_);}
	.st291{opacity:0.45;clip-path:url(#SVGID_265_);fill:url(#SVGID_267_);}
	.st292{fill:#AFAFAF;}
	.st293{clip-path:url(#SVGID_269_);}
	.st294{clip-path:url(#SVGID_271_);fill:#2E3B5D;}
	.st295{clip-path:url(#SVGID_271_);}
	.st296{fill:url(#SVGID_272_);}
	.st297{fill:url(#SVGID_273_);}
	.st298{fill:url(#SVGID_274_);}
	.st299{opacity:0.3;clip-path:url(#SVGID_276_);fill:url(#SVGID_277_);}
	.st300{opacity:0.45;clip-path:url(#SVGID_276_);fill:url(#SVGID_278_);}
	.st301{clip-path:url(#SVGID_280_);}
	.st302{clip-path:url(#SVGID_282_);fill:#2E3B5D;}
	.st303{clip-path:url(#SVGID_282_);}
	.st304{fill:url(#SVGID_283_);}
	.st305{fill:url(#SVGID_284_);}
	.st306{fill:url(#SVGID_285_);}
	.st307{opacity:0.3;clip-path:url(#SVGID_287_);fill:url(#SVGID_288_);}
	.st308{opacity:0.45;clip-path:url(#SVGID_287_);fill:url(#SVGID_289_);}
	.st309{clip-path:url(#SVGID_291_);}
	.st310{clip-path:url(#SVGID_293_);fill:#2E3B5D;}
	.st311{clip-path:url(#SVGID_293_);}
	.st312{fill:url(#SVGID_294_);}
	.st313{fill:url(#SVGID_295_);}
	.st314{fill:url(#SVGID_296_);}
	.st315{opacity:0.3;clip-path:url(#SVGID_298_);fill:url(#SVGID_299_);}
	.st316{opacity:0.45;clip-path:url(#SVGID_298_);fill:url(#SVGID_300_);}
	.st317{clip-path:url(#SVGID_302_);}
	.st318{clip-path:url(#SVGID_304_);fill:#2E3B5D;}
	.st319{clip-path:url(#SVGID_304_);}
	.st320{fill:url(#SVGID_305_);}
	.st321{fill:url(#SVGID_306_);}
	.st322{fill:url(#SVGID_307_);}
	.st323{opacity:0.3;clip-path:url(#SVGID_309_);fill:url(#SVGID_310_);}
	.st324{opacity:0.45;clip-path:url(#SVGID_309_);fill:url(#SVGID_311_);}
	.st325{clip-path:url(#SVGID_313_);}
	.st326{clip-path:url(#SVGID_315_);fill:#2E3B5D;}
	.st327{clip-path:url(#SVGID_315_);}
	.st328{fill:url(#SVGID_316_);}
	.st329{fill:url(#SVGID_317_);}
	.st330{fill:url(#SVGID_318_);}
	.st331{opacity:0.3;clip-path:url(#SVGID_321_);fill:url(#SVGID_322_);}
	.st332{opacity:0.45;clip-path:url(#SVGID_321_);fill:url(#SVGID_323_);}
	.st333{fill:#0080F9;}
	.st334{fill:url(#SVGID_324_);}
	.st335{fill:url(#SVGID_325_);}
	.st336{fill:url(#SVGID_326_);}
	.st337{clip-path:url(#SVGID_329_);}
	.st338{clip-path:url(#SVGID_329_);fill:url(#SVGID_330_);}
	.st339{opacity:0.3;fill:url(#SVGID_331_);}
	.st340{opacity:0.45;fill:url(#SVGID_332_);}
	.st341{clip-path:url(#SVGID_329_);fill:none;}
	
		.st342{clip-path:url(#SVGID_329_);fill:none;stroke:#FFFFFF;stroke-width:2;stroke-linecap:round;stroke-linejoin:round;stroke-miterlimit:10;}
	.st343{clip-path:url(#SVGID_334_);}
	.st344{clip-path:url(#SVGID_336_);fill:#2E3B5D;}
	.st345{clip-path:url(#SVGID_336_);}
	.st346{opacity:0.3;clip-path:url(#SVGID_338_);fill:url(#SVGID_339_);}
	.st347{opacity:0.45;clip-path:url(#SVGID_338_);fill:url(#SVGID_340_);}
	.st348{opacity:0.3;fill:none;stroke:#969696;stroke-width:0.5;stroke-miterlimit:10;}
	.st349{fill:url(#SVGID_341_);}
	.st350{fill:url(#SVGID_342_);}
	.st351{fill:url(#SVGID_343_);}
	.st352{fill:url(#SVGID_344_);}
	.st353{fill:#ED1818;}
	.st354{clip-path:url(#SVGID_346_);}
	.st355{clip-path:url(#SVGID_348_);fill:#2E3B5D;}
	.st356{clip-path:url(#SVGID_348_);}
	.st357{opacity:0.3;clip-path:url(#SVGID_350_);fill:url(#SVGID_351_);}
	.st358{opacity:0.45;clip-path:url(#SVGID_350_);fill:url(#SVGID_352_);}
	.st359{fill:url(#SVGID_353_);}
	.st360{fill:url(#SVGID_354_);}
	.st361{fill:url(#SVGID_355_);}
	.st362{clip-path:url(#SVGID_357_);}
	.st363{clip-path:url(#SVGID_359_);fill:#2E3B5D;}
	.st364{clip-path:url(#SVGID_359_);}
	.st365{opacity:0.3;clip-path:url(#SVGID_361_);fill:url(#SVGID_362_);}
	.st366{opacity:0.45;clip-path:url(#SVGID_361_);fill:url(#SVGID_363_);}
	.st367{fill:url(#SVGID_364_);}
	.st368{fill:url(#SVGID_365_);}
	.st369{fill:url(#SVGID_366_);}
	.st370{fill:url(#SVGID_367_);}
	.st371{fill:url(#SVGID_368_);}
	.st372{fill:url(#SVGID_369_);}
	.st373{fill:url(#SVGID_370_);}
	.st374{fill:url(#SVGID_371_);}
	.st375{fill:none;stroke:url(#SVGID_372_);stroke-miterlimit:10;}
	.st376{fill:none;stroke:url(#SVGID_373_);stroke-miterlimit:10;}
	.st377{fill:url(#SVGID_374_);}
	.st378{fill:none;stroke:url(#SVGID_375_);stroke-miterlimit:10;}
	.st379{fill:none;stroke:url(#SVGID_376_);stroke-miterlimit:10;}
	.st380{fill:url(#SVGID_377_);}
	.st381{fill:none;stroke:url(#SVGID_378_);stroke-miterlimit:10;}
	.st382{fill:none;stroke:url(#SVGID_379_);stroke-miterlimit:10;}
	.st383{fill:url(#SVGID_380_);}
	.st384{fill:none;stroke:url(#SVGID_381_);stroke-miterlimit:10;}
	.st385{fill:none;stroke:url(#SVGID_382_);stroke-miterlimit:10;}
	.st386{fill:url(#SVGID_383_);}
	.st387{fill:none;stroke:url(#SVGID_384_);stroke-miterlimit:10;}
	.st388{fill:none;stroke:url(#SVGID_385_);stroke-miterlimit:10;}
	.st389{fill:url(#SVGID_386_);}
	.st390{fill:none;stroke:url(#SVGID_387_);stroke-miterlimit:10;}
	.st391{fill:none;stroke:url(#SVGID_388_);stroke-miterlimit:10;}
	.st392{fill:url(#SVGID_389_);}
	.st393{fill:none;stroke:url(#SVGID_390_);stroke-miterlimit:10;}
	.st394{fill:none;stroke:url(#SVGID_391_);stroke-miterlimit:10;}
	.st395{fill:url(#SVGID_392_);}
	.st396{opacity:0.3;clip-path:url(#SVGID_394_);fill:url(#SVGID_395_);}
	.st397{opacity:0.45;clip-path:url(#SVGID_394_);fill:url(#SVGID_396_);}
	.st398{fill:url(#SVGID_397_);}
	.st399{clip-path:url(#SVGID_399_);}
	.st400{clip-path:url(#SVGID_401_);fill:#2E3B5D;}
	.st401{clip-path:url(#SVGID_401_);}
	.st402{opacity:0.3;clip-path:url(#SVGID_403_);fill:url(#SVGID_404_);}
	.st403{opacity:0.45;clip-path:url(#SVGID_403_);fill:url(#SVGID_405_);}
	.st404{fill:url(#SVGID_406_);}
	.st405{fill:url(#SVGID_407_);}
	.st406{fill:url(#SVGID_408_);}
	.st407{fill:url(#SVGID_409_);}
	.st408{fill:url(#SVGID_410_);}
	.st409{fill:url(#SVGID_411_);}
	.st410{fill:url(#SVGID_412_);}
	.st411{clip-path:url(#SVGID_414_);}
	.st412{clip-path:url(#SVGID_416_);fill:#2E3B5D;}
	.st413{clip-path:url(#SVGID_416_);}
	.st414{opacity:0.3;clip-path:url(#SVGID_418_);fill:url(#SVGID_419_);}
	.st415{opacity:0.45;clip-path:url(#SVGID_418_);fill:url(#SVGID_420_);}
	.st416{fill:url(#SVGID_421_);}
	.st417{fill:url(#SVGID_422_);}
	.st418{fill:url(#SVGID_423_);}
	.st419{fill:url(#SVGID_424_);}
	.st420{fill:url(#SVGID_425_);}
	.st421{fill:none;stroke:url(#SVGID_426_);stroke-miterlimit:10;}
	.st422{fill:none;stroke:url(#SVGID_427_);stroke-miterlimit:10;}
	.st423{fill:url(#SVGID_428_);}
	.st424{fill:none;stroke:url(#SVGID_429_);stroke-miterlimit:10;}
	.st425{fill:none;stroke:url(#SVGID_430_);stroke-miterlimit:10;}
	.st426{fill:url(#SVGID_431_);}
	.st427{fill:none;stroke:url(#SVGID_432_);stroke-miterlimit:10;}
	.st428{fill:none;stroke:url(#SVGID_433_);stroke-miterlimit:10;}
	.st429{fill:url(#SVGID_434_);}
	.st430{fill:none;stroke:url(#SVGID_435_);stroke-miterlimit:10;}
	.st431{fill:none;stroke:url(#SVGID_436_);stroke-miterlimit:10;}
	.st432{fill:url(#SVGID_437_);}
	.st433{fill:none;stroke:url(#SVGID_438_);stroke-miterlimit:10;}
	.st434{fill:none;stroke:url(#SVGID_439_);stroke-miterlimit:10;}
	.st435{fill:url(#SVGID_440_);}
	.st436{fill:none;stroke:url(#SVGID_441_);stroke-miterlimit:10;}
	.st437{fill:none;stroke:url(#SVGID_442_);stroke-miterlimit:10;}
	.st438{fill:url(#SVGID_443_);}
	.st439{fill:none;stroke:url(#SVGID_444_);stroke-miterlimit:10;}
	.st440{fill:none;stroke:url(#SVGID_445_);stroke-miterlimit:10;}
	.st441{fill:url(#SVGID_446_);}
	.st442{fill:url(#SVGID_447_);}
	.st443{fill:url(#SVGID_448_);}
	.st444{fill:url(#SVGID_449_);}
	.st445{fill:url(#SVGID_450_);}
	.st446{clip-path:url(#SVGID_452_);}
	.st447{clip-path:url(#SVGID_454_);fill:#2E3B5D;}
	.st448{clip-path:url(#SVGID_454_);}
	.st449{opacity:0.3;clip-path:url(#SVGID_456_);fill:url(#SVGID_457_);}
	.st450{opacity:0.45;clip-path:url(#SVGID_456_);fill:url(#SVGID_458_);}
	.st451{fill:url(#SVGID_459_);}
	.st452{fill:url(#SVGID_460_);}
	.st453{fill:url(#SVGID_461_);}
	.st454{clip-path:url(#SVGID_463_);}
	.st455{clip-path:url(#SVGID_465_);fill:#2E3B5D;}
	.st456{clip-path:url(#SVGID_465_);}
	.st457{opacity:0.3;clip-path:url(#SVGID_467_);fill:url(#SVGID_468_);}
	.st458{opacity:0.45;clip-path:url(#SVGID_467_);fill:url(#SVGID_469_);}
	.st459{fill:url(#SVGID_470_);}
	.st460{fill:url(#SVGID_471_);}
	.st461{fill:url(#SVGID_472_);}
	.st462{fill:#A80E0E;}
	.st463{opacity:0.2;fill:#E0B605;}
	.st464{opacity:0.2;fill:none;stroke:#E0B605;stroke-miterlimit:10;}
	.st465{clip-path:url(#SVGID_474_);}
	.st466{clip-path:url(#SVGID_476_);fill:#2E3B5D;}
	.st467{clip-path:url(#SVGID_476_);}
	.st468{opacity:0.3;clip-path:url(#SVGID_478_);fill:url(#SVGID_479_);}
	.st469{opacity:0.45;clip-path:url(#SVGID_478_);fill:url(#SVGID_480_);}
	.st470{fill:url(#SVGID_481_);}
	.st471{fill:url(#SVGID_482_);}
	.st472{fill:url(#SVGID_483_);}
	.st473{opacity:0.3;clip-path:url(#SVGID_485_);fill:url(#SVGID_486_);}
	.st474{opacity:0.45;clip-path:url(#SVGID_485_);fill:url(#SVGID_487_);}
	.st475{clip-path:url(#SVGID_489_);}
	.st476{clip-path:url(#SVGID_491_);fill:#2E3B5D;}
	.st477{clip-path:url(#SVGID_491_);}
	.st478{opacity:0.3;clip-path:url(#SVGID_493_);fill:url(#SVGID_494_);}
	.st479{opacity:0.45;clip-path:url(#SVGID_493_);fill:url(#SVGID_495_);}
	.st480{fill:url(#SVGID_496_);}
	.st481{fill:url(#SVGID_497_);}
	.st482{fill:url(#SVGID_498_);}
	.st483{opacity:0.3;clip-path:url(#SVGID_500_);fill:url(#SVGID_501_);}
	.st484{opacity:0.45;clip-path:url(#SVGID_500_);fill:url(#SVGID_502_);}
	.st485{opacity:0.3;clip-path:url(#SVGID_504_);fill:url(#SVGID_505_);}
	.st486{opacity:0.45;clip-path:url(#SVGID_504_);fill:url(#SVGID_506_);}
	.st487{opacity:0.3;clip-path:url(#SVGID_508_);fill:url(#SVGID_509_);}
	.st488{opacity:0.45;clip-path:url(#SVGID_508_);fill:url(#SVGID_510_);}
	.st489{clip-path:url(#SVGID_512_);}
	.st490{clip-path:url(#SVGID_514_);fill:#2E3B5D;}
	.st491{clip-path:url(#SVGID_514_);}
	.st492{opacity:0.3;clip-path:url(#SVGID_516_);fill:url(#SVGID_517_);}
	.st493{opacity:0.45;clip-path:url(#SVGID_516_);fill:url(#SVGID_518_);}
	.st494{fill:url(#SVGID_519_);}
	.st495{fill:url(#SVGID_520_);}
	.st496{fill:url(#SVGID_521_);}
	.st497{clip-path:url(#SVGID_523_);}
	.st498{clip-path:url(#SVGID_525_);fill:#2E3B5D;}
	.st499{clip-path:url(#SVGID_525_);}
	.st500{opacity:0.3;clip-path:url(#SVGID_527_);fill:url(#SVGID_528_);}
	.st501{opacity:0.45;clip-path:url(#SVGID_527_);fill:url(#SVGID_529_);}
	.st502{fill:url(#SVGID_530_);}
	.st503{fill:url(#SVGID_531_);}
	.st504{fill:url(#SVGID_532_);}
	.st505{fill:none;stroke:#487EF1;stroke-miterlimit:10;}
	.st506{opacity:0.3;clip-path:url(#SVGID_534_);fill:url(#SVGID_535_);}
	.st507{opacity:0.45;clip-path:url(#SVGID_534_);fill:url(#SVGID_536_);}
	.st508{clip-path:url(#SVGID_538_);}
	.st509{clip-path:url(#SVGID_540_);fill:#2E3B5D;}
	.st510{clip-path:url(#SVGID_540_);}
	.st511{opacity:0.3;clip-path:url(#SVGID_542_);fill:url(#SVGID_543_);}
	.st512{opacity:0.45;clip-path:url(#SVGID_542_);fill:url(#SVGID_544_);}
	.st513{fill:url(#SVGID_545_);}
	.st514{fill:url(#SVGID_546_);}
	.st515{fill:url(#SVGID_547_);}
	.st516{clip-path:url(#SVGID_549_);}
	.st517{clip-path:url(#SVGID_551_);fill:#2E3B5D;}
	.st518{clip-path:url(#SVGID_551_);}
	.st519{opacity:0.3;clip-path:url(#SVGID_553_);fill:url(#SVGID_554_);}
	.st520{opacity:0.45;clip-path:url(#SVGID_553_);fill:url(#SVGID_555_);}
	.st521{fill:url(#SVGID_556_);}
	.st522{fill:url(#SVGID_557_);}
	.st523{fill:url(#SVGID_558_);}
	.st524{fill:none;stroke:#7F740A;stroke-width:3;stroke-miterlimit:10;}
	.st525{fill:none;stroke:#7F740A;stroke-width:3;stroke-miterlimit:10;stroke-dasharray:11.8989,11.8989;}
	.st526{fill:#7F740A;}
	.st527{fill:none;stroke:#7F740A;stroke-width:3;stroke-miterlimit:10;stroke-dasharray:12;}
	.st528{clip-path:url(#SVGID_560_);}
	.st529{clip-path:url(#SVGID_562_);fill:#2E3B5D;}
	.st530{clip-path:url(#SVGID_562_);}
	.st531{opacity:0.3;clip-path:url(#SVGID_564_);fill:url(#SVGID_565_);}
	.st532{opacity:0.45;clip-path:url(#SVGID_564_);fill:url(#SVGID_566_);}
	.st533{fill:url(#SVGID_567_);}
	.st534{fill:url(#SVGID_568_);}
	.st535{fill:url(#SVGID_569_);}
	.st536{fill:url(#SVGID_570_);}
	.st537{fill:url(#SVGID_571_);}
	.st538{fill:url(#SVGID_572_);}
	.st539{fill:url(#SVGID_573_);}
	.st540{fill:url(#SVGID_574_);}
	.st541{clip-path:url(#SVGID_576_);}
	.st542{clip-path:url(#SVGID_578_);fill:#2E3B5D;}
	.st543{clip-path:url(#SVGID_578_);}
	.st544{opacity:0.3;clip-path:url(#SVGID_580_);fill:url(#SVGID_581_);}
	.st545{opacity:0.45;clip-path:url(#SVGID_580_);fill:url(#SVGID_582_);}
	.st546{fill:url(#SVGID_583_);}
	.st547{fill:url(#SVGID_584_);}
	.st548{fill:url(#SVGID_585_);}
	.st549{fill:url(#SVGID_586_);}
	.st550{fill:url(#SVGID_587_);}
	.st551{fill:url(#SVGID_588_);}
	.st552{fill:url(#SVGID_589_);}
	.st553{clip-path:url(#SVGID_591_);}
	.st554{clip-path:url(#SVGID_593_);fill:#2E3B5D;}
	.st555{clip-path:url(#SVGID_593_);}
	.st556{opacity:0.3;clip-path:url(#SVGID_595_);fill:url(#SVGID_596_);}
	.st557{opacity:0.45;clip-path:url(#SVGID_595_);fill:url(#SVGID_597_);}
	.st558{fill:url(#SVGID_598_);}
	.st559{fill:url(#SVGID_599_);}
	.st560{fill:url(#SVGID_600_);}
	.st561{fill:#606060;}
	.st562{fill:#E52875;}
	.st563{fill:url(#SVGID_601_);}
	.st564{fill:#EAE41F;}
	.st565{fill:none;stroke:#EAE41F;stroke-miterlimit:10;}
	.st566{clip-path:url(#SVGID_603_);}
	.st567{clip-path:url(#SVGID_605_);fill:#2E3B5D;}
	.st568{clip-path:url(#SVGID_605_);}
	.st569{opacity:0.3;clip-path:url(#SVGID_607_);fill:url(#SVGID_608_);}
	.st570{opacity:0.45;clip-path:url(#SVGID_607_);fill:url(#SVGID_609_);}
	.st571{fill:url(#SVGID_610_);}
	.st572{fill:url(#SVGID_611_);}
	.st573{fill:url(#SVGID_612_);}
	.st574{fill:url(#SVGID_613_);}
	.st575{fill:none;stroke:#A80E0E;stroke-width:2;stroke-miterlimit:10;}
	.st576{fill:#FF0000;}
	.st577{fill:#0FBA27;}
</style>
<g>
	<defs>
		<rect id="SVGID_34_" x="-14.11" y="-2.43" width="634.15" height="776.13"/>
	</defs>
	<linearGradient id="SVGID_1_" gradientUnits="userSpaceOnUse" x1="302.9676" y1="773.6999" x2="302.9676" y2="-2.4308">
		<stop  offset="0" style="stop-color:#487EF1"/>
		<stop  offset="0.4447" style="stop-color:#558BF5"/>
		<stop  offset="1" style="stop-color:#6CA1FC"/>
	</linearGradient>
	<use xlink:href="#SVGID_34_"  style="overflow:visible;fill:url(#SVGID_1_);"/>
	<clipPath id="SVGID_2_">
		<use xlink:href="#SVGID_34_"  style="overflow:visible;"/>
	</clipPath>
	<rect x="-14.11" y="-2.43" style="clip-path:url(#SVGID_2_);fill:none;" width="634.15" height="776.13"/>
	<linearGradient id="SVGID_3_" gradientUnits="userSpaceOnUse" x1="276.6705" y1="598.494" x2="300.8293" y2="874.6303">
		<stop  offset="0" style="stop-color:#568FFC"/>
		<stop  offset="0.9146" style="stop-color:#568FFC;stop-opacity:0"/>
	</linearGradient>
	<path style="opacity:0.3;clip-path:url(#SVGID_2_);fill:url(#SVGID_3_);" d="M-125.36,688.18c29.24-28.4,77.27-46.46,122.12-37.86
		c30.87,5.92,58.37,19.99,86.59,31.92c28.22,11.93,59.28,22.09,90.78,19.19c68.95-6.34,112.36-70.95,180.64-81.07
		c72.65-10.76,148.29,44.02,216.06,19.84c48.95-17.46,73.22-71.08,125.77-78.44V840h-821.97V688.18z"/>
	<linearGradient id="SVGID_4_" gradientUnits="userSpaceOnUse" x1="291.07" y1="885.7173" x2="291.07" y2="652.171">
		<stop  offset="0.0854" style="stop-color:#568FFC;stop-opacity:0"/>
		<stop  offset="1" style="stop-color:#568FFC"/>
	</linearGradient>
	<path style="opacity:0.45;clip-path:url(#SVGID_2_);fill:url(#SVGID_4_);" d="M-61.31,708.96c37.86,6.22,58.85-0.18,90.31-17.17
		c21.13-11.41,38.95-27.67,64.13-32.59c30.75-6.02,62.53,6.96,86.24,22.85c23.71,15.88,43.81,35.36,71.67,46.85
		c57.83,23.85,131.88,5.97,183.99-24.41c22.55-13.15,42.93-28.54,67.48-39.48c24.55-10.93,55.09-17.02,81.82-9.5
		c21.99,6.18,38.16,20.51,59.12,28.46v201.76H-61.31V708.96z"/>
	
		<linearGradient id="SVGID_5_" gradientUnits="userSpaceOnUse" x1="15080.54" y1="8146.1016" x2="15080.54" y2="7845.9028" gradientTransform="matrix(-1 0 0 -1 15371.6074 8056.4478)">
		<stop  offset="0.0401" style="stop-color:#FFFFFF;stop-opacity:0"/>
		<stop  offset="0.9671" style="stop-color:#FFFFFF;stop-opacity:0.9795"/>
		<stop  offset="0.9865" style="stop-color:#FFFFFF"/>
	</linearGradient>
	<path style="opacity:0.6;clip-path:url(#SVGID_2_);fill:url(#SVGID_5_);" d="M643.45,97.83c-37.86-12.35-58.85,0.36-90.31,34.09
		c-21.13,22.65-38.95,54.91-64.13,64.69c-30.75,11.94-62.53-13.82-86.24-45.35c-23.71-31.53-43.81-70.19-71.67-92.99
		c-57.83-47.35-131.88-11.85-183.99,48.46c-22.55,26.09-42.93,56.65-67.48,78.35c-24.55,21.7-55.09,33.78-81.82,18.85
		c-21.99-12.27-38.16-40.71-59.12-56.48v-237.1h704.76V97.83z"/>
	
		<linearGradient id="SVGID_6_" gradientUnits="userSpaceOnUse" x1="378.6825" y1="8077.3247" x2="378.6825" y2="7900.2529" gradientTransform="matrix(1 0 0 -1 0 8056.4478)">
		<stop  offset="0" style="stop-color:#FFFFFF;stop-opacity:0"/>
		<stop  offset="0.9662" style="stop-color:#FFFFFF;stop-opacity:0.9795"/>
		<stop  offset="0.9865" style="stop-color:#FFFFFF"/>
	</linearGradient>
	<path style="opacity:0.6;clip-path:url(#SVGID_2_);fill:url(#SVGID_6_);" d="M-20.82,68.83C22.11,59.25,45.9,69.1,81.57,95.25
		c23.95,17.55,44.16,42.56,72.71,50.14c34.87,9.26,70.89-10.71,97.77-35.15c26.88-24.44,49.67-54.4,81.25-72.08
		c65.57-36.7,149.51-9.18,208.59,37.56c25.56,20.22,48.67,43.91,76.5,60.73c27.84,16.82,62.45,26.18,92.76,14.61
		c24.93-9.51,43.26-31.55,67.02-43.78V-20.88h-799V68.83z"/>
	<g style="opacity:0.4;clip-path:url(#SVGID_2_);">
		<path class="st1" d="M88.52,148.94c0,2.58-2.09,4.67-4.67,4.67c-2.58,0-4.67-2.09-4.67-4.67c0-2.58,2.09-4.67,4.67-4.67
			C86.43,144.27,88.52,146.36,88.52,148.94z"/>
		<path class="st1" d="M431.53,600.16c0,2.58-2.09,4.67-4.67,4.67c-2.58,0-4.67-2.09-4.67-4.67c0-2.58,2.09-4.67,4.67-4.67
			C429.44,595.5,431.53,597.59,431.53,600.16z"/>
		<path class="st1" d="M117.99,725.15c0,1.32-1.07,2.38-2.38,2.38c-1.32,0-2.38-1.07-2.38-2.38c0-1.32,1.07-2.38,2.38-2.38
			C116.92,722.77,117.99,723.83,117.99,725.15z"/>
		<circle class="st1" cx="515.62" cy="594.41" r="5.11"/>
		<path class="st1" d="M144.52,687.2c0,3.24-2.63,5.87-5.87,5.87c-3.24,0-5.87-2.63-5.87-5.87c0-3.24,2.63-5.87,5.87-5.87
			C141.9,681.34,144.52,683.96,144.52,687.2z"/>
		<path class="st1" d="M94.3,117.05c0,1.55-1.25,2.8-2.8,2.8c-1.55,0-2.8-1.25-2.8-2.8c0-1.55,1.25-2.8,2.8-2.8
			C93.05,114.25,94.3,115.51,94.3,117.05z"/>
		<path class="st1" d="M504.31,636.3c0,1.55-1.25,2.8-2.8,2.8c-1.55,0-2.8-1.25-2.8-2.8c0-1.55,1.25-2.8,2.8-2.8
			C503.06,633.5,504.31,634.75,504.31,636.3z"/>
		<circle class="st1" cx="29.17" cy="134.3" r="1.68"/>
		<path class="st1" d="M564.02,444.53c0,0.93-0.75,1.68-1.68,1.68c-0.93,0-1.68-0.75-1.68-1.68c0-0.93,0.75-1.68,1.68-1.68
			C563.27,442.85,564.02,443.6,564.02,444.53z"/>
		<path class="st1" d="M197.33,640.44c0,0.9-0.73,1.64-1.64,1.64c-0.9,0-1.64-0.73-1.64-1.64c0-0.9,0.73-1.64,1.64-1.64
			C196.59,638.8,197.33,639.53,197.33,640.44z"/>
		<path class="st1" d="M44.57,610.6c0,1.91-1.54,3.45-3.45,3.45c-1.91,0-3.45-1.54-3.45-3.45c0-1.91,1.54-3.45,3.45-3.45
			C43.03,607.16,44.57,608.7,44.57,610.6z"/>
		<circle class="st1" cx="519.94" cy="491.11" r="1.68"/>
	</g>
	<path style="opacity:0.15;clip-path:url(#SVGID_2_);fill:#FFFFFF;" d="M617.19,857.26h2.85V-76.16h-2.85v53.61h-60.47v-53.61h-2.85
		v53.61h-60.47v-53.61h-2.85v53.61h-60.48v-53.61h-2.85v53.61h-60.47v-53.61h-2.85v53.61H303.4v-53.61h-2.85v53.61h-60.47v-53.61
		h-2.85v53.61h-60.48v-53.61h-2.85v53.61h-60.47v-53.61h-2.85v53.61H50.08v-53.61h-2.85v53.61h-60.47v-53.61h-2.85v933.41h2.85
		v-53.67h60.47v53.67h2.85v-53.67h60.47v53.67h2.85v-53.67h60.47v53.67h2.85v-53.67h60.48v53.67h2.85v-53.67h60.47v53.67h2.85
		v-53.67h60.47v53.67h2.85v-53.67h60.47v53.67h2.85v-53.67h60.48v53.67h2.85v-53.67h60.47v53.67h2.85v-53.67h60.47V857.26z
		 M47.23,800.73h-60.47v-60.48h60.47V800.73z M110.56,800.73H50.08v-60.48h60.47V800.73z M173.88,800.73h-60.47v-60.48h60.47V800.73
		z M237.21,800.73h-60.48v-60.48h60.48V800.73z M300.54,800.73h-60.47v-60.48h60.47V800.73z M363.87,800.73H303.4v-60.48h60.47
		V800.73z M427.2,800.73h-60.47v-60.48h60.47V800.73z M490.53,800.73h-60.48v-60.48h60.48V800.73z M553.86,800.73h-60.47v-60.48
		h60.47V800.73z M617.19,800.73h-60.47v-60.48h60.47V800.73z M47.23,737.4h-60.47v-60.47h60.47V737.4z M110.56,737.4H50.08v-60.47
		h60.47V737.4z M173.88,737.4h-60.47v-60.47h60.47V737.4z M237.21,737.4h-60.48v-60.47h60.48V737.4z M300.54,737.4h-60.47v-60.47
		h60.47V737.4z M363.87,737.4H303.4v-60.47h60.47V737.4z M427.2,737.4h-60.47v-60.47h60.47V737.4z M490.53,737.4h-60.48v-60.47
		h60.48V737.4z M553.86,737.4h-60.47v-60.47h60.47V737.4z M617.19,737.4h-60.47v-60.47h60.47V737.4z M47.23,674.08h-60.47V613.6
		h60.47V674.08z M110.56,674.08H50.08V613.6h60.47V674.08z M173.88,674.08h-60.47V613.6h60.47V674.08z M237.21,674.08h-60.48V613.6
		h60.48V674.08z M300.54,674.08h-60.47V613.6h60.47V674.08z M363.87,674.08H303.4V613.6h60.47V674.08z M427.2,674.08h-60.47V613.6
		h60.47V674.08z M490.53,674.08h-60.48V613.6h60.48V674.08z M553.86,674.08h-60.47V613.6h60.47V674.08z M617.19,674.08h-60.47V613.6
		h60.47V674.08z M47.23,610.74h-60.47v-60.47h60.47V610.74z M110.56,610.74H50.08v-60.47h60.47V610.74z M173.88,610.74h-60.47
		v-60.47h60.47V610.74z M237.21,610.74h-60.48v-60.47h60.48V610.74z M300.54,610.74h-60.47v-60.47h60.47V610.74z M363.87,610.74
		H303.4v-60.47h60.47V610.74z M427.2,610.74h-60.47v-60.47h60.47V610.74z M490.53,610.74h-60.48v-60.47h60.48V610.74z
		 M553.86,610.74h-60.47v-60.47h60.47V610.74z M617.19,610.74h-60.47v-60.47h60.47V610.74z M47.23,547.42h-60.47v-60.48h60.47
		V547.42z M110.56,547.42H50.08v-60.48h60.47V547.42z M173.88,547.42h-60.47v-60.48h60.47V547.42z M237.21,547.42h-60.48v-60.48
		h60.48V547.42z M300.54,547.42h-60.47v-60.48h60.47V547.42z M363.87,547.42H303.4v-60.48h60.47V547.42z M427.2,547.42h-60.47
		v-60.48h60.47V547.42z M490.53,547.42h-60.48v-60.48h60.48V547.42z M553.86,547.42h-60.47v-60.48h60.47V547.42z M617.19,547.42
		h-60.47v-60.48h60.47V547.42z M47.23,484.09h-60.47v-60.48h60.47V484.09z M110.56,484.09H50.08v-60.48h60.47V484.09z
		 M173.88,484.09h-60.47v-60.48h60.47V484.09z M237.21,484.09h-60.48v-60.48h60.48V484.09z M300.54,484.09h-60.47v-60.48h60.47
		V484.09z M363.87,484.09H303.4v-60.48h60.47V484.09z M427.2,484.09h-60.47v-60.48h60.47V484.09z M490.53,484.09h-60.48v-60.48
		h60.48V484.09z M553.86,484.09h-60.47v-60.48h60.47V484.09z M617.19,484.09h-60.47v-60.48h60.47V484.09z M47.23,420.76h-60.47
		v-60.47h60.47V420.76z M110.56,420.76H50.08v-60.47h60.47V420.76z M173.88,420.76h-60.47v-60.47h60.47V420.76z M237.21,420.76
		h-60.48v-60.47h60.48V420.76z M300.54,420.76h-60.47v-60.47h60.47V420.76z M363.87,420.76H303.4v-60.47h60.47V420.76z
		 M427.2,420.76h-60.47v-60.47h60.47V420.76z M490.53,420.76h-60.48v-60.47h60.48V420.76z M553.86,420.76h-60.47v-60.47h60.47
		V420.76z M617.19,420.76h-60.47v-60.47h60.47V420.76z M47.23,357.43h-60.47v-60.48h60.47V357.43z M110.56,357.43H50.08v-60.48
		h60.47V357.43z M173.88,357.43h-60.47v-60.48h60.47V357.43z M237.21,357.43h-60.48v-60.48h60.48V357.43z M300.54,357.43h-60.47
		v-60.48h60.47V357.43z M363.87,357.43H303.4v-60.48h60.47V357.43z M427.2,357.43h-60.47v-60.48h60.47V357.43z M490.53,357.43
		h-60.48v-60.48h60.48V357.43z M553.86,357.43h-60.47v-60.48h60.47V357.43z M617.19,357.43h-60.47v-60.48h60.47V357.43z
		 M47.23,294.1h-60.47v-60.47h60.47V294.1z M110.56,294.1H50.08v-60.47h60.47V294.1z M173.88,294.1h-60.47v-60.47h60.47V294.1z
		 M237.21,294.1h-60.48v-60.47h60.48V294.1z M300.54,294.1h-60.47v-60.47h60.47V294.1z M363.87,294.1H303.4v-60.47h60.47V294.1z
		 M427.2,294.1h-60.47v-60.47h60.47V294.1z M490.53,294.1h-60.48v-60.47h60.48V294.1z M553.86,294.1h-60.47v-60.47h60.47V294.1z
		 M617.19,294.1h-60.47v-60.47h60.47V294.1z M47.23,230.77h-60.47V170.3h60.47V230.77z M110.56,230.77H50.08V170.3h60.47V230.77z
		 M173.88,230.77h-60.47V170.3h60.47V230.77z M237.21,230.77h-60.48V170.3h60.48V230.77z M300.54,230.77h-60.47V170.3h60.47V230.77z
		 M363.87,230.77H303.4V170.3h60.47V230.77z M427.2,230.77h-60.47V170.3h60.47V230.77z M490.53,230.77h-60.48V170.3h60.48V230.77z
		 M553.86,230.77h-60.47V170.3h60.47V230.77z M617.19,230.77h-60.47V170.3h60.47V230.77z M47.23,167.44h-60.47v-60.48h60.47V167.44z
		 M110.56,167.44H50.08v-60.48h60.47V167.44z M173.88,167.44h-60.47v-60.48h60.47V167.44z M237.21,167.44h-60.48v-60.48h60.48
		V167.44z M300.54,167.44h-60.47v-60.48h60.47V167.44z M363.87,167.44H303.4v-60.48h60.47V167.44z M427.2,167.44h-60.47v-60.48
		h60.47V167.44z M490.53,167.44h-60.48v-60.48h60.48V167.44z M553.86,167.44h-60.47v-60.48h60.47V167.44z M617.19,167.44h-60.47
		v-60.48h60.47V167.44z M47.23,104.11h-60.47V43.64h60.47V104.11z M110.56,104.11H50.08V43.64h60.47V104.11z M173.88,104.11h-60.47
		V43.64h60.47V104.11z M237.21,104.11h-60.48V43.64h60.48V104.11z M300.54,104.11h-60.47V43.64h60.47V104.11z M363.87,104.11H303.4
		V43.64h60.47V104.11z M427.2,104.11h-60.47V43.64h60.47V104.11z M490.53,104.11h-60.48V43.64h60.48V104.11z M553.86,104.11h-60.47
		V43.64h60.47V104.11z M617.19,104.11h-60.47V43.64h60.47V104.11z M47.23,40.79h-60.47v-60.48h60.47V40.79z M110.56,40.79H50.08
		v-60.48h60.47V40.79z M173.88,40.79h-60.47v-60.48h60.47V40.79z M237.21,40.79h-60.48v-60.48h60.48V40.79z M300.54,40.79h-60.47
		v-60.48h60.47V40.79z M363.87,40.79H303.4v-60.48h60.47V40.79z M427.2,40.79h-60.47v-60.48h60.47V40.79z M490.53,40.79h-60.48
		v-60.48h60.48V40.79z M553.86,40.79h-60.47v-60.48h60.47V40.79z M617.19,40.79h-60.47v-60.48h60.47V40.79z"/>
	<g style="opacity:0.6;clip-path:url(#SVGID_2_);">
		<g>
			<line class="st31" x1="-106.93" y1="808.3" x2="161.53" y2="539.85"/>
			<g>
				<circle class="st1" cx="161.43" cy="539.95" r="2.95"/>
			</g>
		</g>
	</g>
	<g style="opacity:0.6;clip-path:url(#SVGID_2_);">
		<g>
			<line class="st31" x1="510.57" y1="265.67" x2="729.51" y2="46.73"/>
			<g>
				<path class="st1" d="M512.76,267.65c-1.15,1.15-3.02,1.15-4.17,0c-1.15-1.15-1.15-3.02,0-4.17s3.02-1.15,4.17,0
					C513.91,264.63,513.91,266.49,512.76,267.65z"/>
			</g>
		</g>
	</g>
	<g style="opacity:0.6;clip-path:url(#SVGID_2_);">
		<g>
			<line class="st31" x1="446.67" y1="802.54" x2="665.61" y2="583.6"/>
		</g>
	</g>
	<g style="opacity:0.6;clip-path:url(#SVGID_2_);">
		<g>
			<line class="st31" x1="483.03" y1="832.24" x2="701.97" y2="613.3"/>
		</g>
	</g>
	<g style="opacity:0.6;clip-path:url(#SVGID_2_);">
		<g>
			<line class="st31" x1="144.72" y1="246.67" x2="479.07" y2="-87.67"/>
			<g>
				<path class="st1" d="M146.91,248.65c-1.15,1.15-3.02,1.15-4.17,0c-1.15-1.15-1.15-3.02,0-4.17c1.15-1.15,3.02-1.15,4.17,0
					C148.06,245.64,148.06,247.5,146.91,248.65z"/>
			</g>
		</g>
	</g>
	<g style="opacity:0.6;clip-path:url(#SVGID_2_);">
		<g>
			<line class="st31" x1="293.12" y1="139.83" x2="627.47" y2="-194.51"/>
			<g>
				<path class="st1" d="M295.31,141.82c-1.15,1.15-3.02,1.15-4.17,0c-1.15-1.15-1.15-3.02,0-4.17c1.15-1.15,3.02-1.15,4.17,0
					C296.46,138.8,296.46,140.66,295.31,141.82z"/>
			</g>
		</g>
	</g>
	<g style="opacity:0.6;clip-path:url(#SVGID_2_);">
		<g>
			<line class="st31" x1="-61.54" y1="835.29" x2="134.23" y2="639.52"/>
			<g>
				<path class="st1" d="M136.21,641.71c1.15-1.15,1.15-3.02,0-4.17c-1.15-1.15-3.02-1.15-4.17,0c-1.15,1.15-1.15,3.02,0,4.17
					S135.06,642.86,136.21,641.71z"/>
			</g>
		</g>
	</g>
	<g style="clip-path:url(#SVGID_2_);">
		<path class="st32" d="M474.54,637.54c0,7.87-6.38,14.24-14.24,14.24c-7.87,0-14.24-6.38-14.24-14.24
			c0-7.87,6.38-14.24,14.24-14.24C468.16,623.3,474.54,629.67,474.54,637.54z"/>
		<circle class="st33" cx="460.29" cy="637.54" r="28.01"/>
	</g>
	<g style="clip-path:url(#SVGID_2_);">
		<circle class="st32" cx="49.43" cy="208.98" r="14.24"/>
		<circle class="st33" cx="49.43" cy="208.98" r="28.01"/>
	</g>
	<path style="opacity:0.6;clip-path:url(#SVGID_2_);fill:#FFFFFF;" d="M500.13,61.47c-9.85,5.3-22.13,1.62-27.43-8.23
		s-1.62-22.13,8.23-27.43c9.85-5.3,22.13-1.62,27.43,8.22S509.98,56.16,500.13,61.47z"/>
	
		<ellipse transform="matrix(0.1563 -0.9877 0.9877 0.1563 370.7518 521.3196)" style="opacity:0.6;clip-path:url(#SVGID_2_);fill:none;stroke:#FFFFFF;stroke-width:0.49;stroke-miterlimit:10;" cx="490.53" cy="43.64" rx="30.62" ry="30.62"/>
</g>
</svg>
