<svg id="Capa_1" data-name="Capa 1" xmlns="http://www.w3.org/2000/svg" xmlns:xlink="http://www.w3.org/1999/xlink" viewBox="0 0 65 47"><defs><style>.cls-1,.cls-4{fill:none;}.cls-2{fill:url(#Degradado_sin_nombre_13);}.cls-3{fill:#fff;}.cls-4{stroke:#fff;stroke-linecap:round;stroke-linejoin:round;stroke-width:2px;}</style><linearGradient id="Degradado_sin_nombre_13" x1="-1337.34" y1="-403.55" x2="277.79" y2="546.19" gradientUnits="userSpaceOnUse"><stop offset="0" stop-color="#487ef1"/><stop offset="0.12" stop-color="#548ff3"/><stop offset="0.72" stop-color="#8cdcff"/></linearGradient></defs><title>flecha</title><rect class="cls-1" x="-1227.95" y="-462.14" width="1274.59" height="829.1" rx="12.77"/><path class="cls-2" d="M247-462H-1227.48v829.1h0L-1227.7,651C-1060.4,499.78-610.15-10.09-297-37.62,7.56-64.39,173.9-223,247-317.19V-462Z"/><path class="cls-1" d="M246.54-462.14H-1227.95V367h0l5.79,277.11C-1054.86,492.85-610.62-10.24-297.46-37.77,7.1-64.55,173.43-223.16,246.54-317.34v-144.8Z"/><path class="cls-3" d="M57.9,30.79c-.48,2.52-2.28,4.05-4.27,5.32a4.48,4.48,0,0,1-5.17-.61c-.19-.17-.37-.36-.56-.54L33.46,20.52c-.14-.14-.26-.29-.43-.48l-.44.42L17.91,35.14a4.63,4.63,0,0,1-5,1.21,2.39,2.39,0,0,1-.79-.37c-1.54-1.24-3.19-2.42-3.79-4.47a4.55,4.55,0,0,1,.91-4.24,8,8,0,0,1,.57-.6C16.22,20.22,22.71,13.81,29.1,7.28a5.74,5.74,0,0,1,7.8,0c6.22,6.36,12.54,12.62,18.86,18.9a6.41,6.41,0,0,1,2.14,3.64Z"/><line class="cls-4" x1="33.07" y1="26.56" x2="33.07" y2="38.91"/></svg>