<svg xmlns="http://www.w3.org/2000/svg" xmlns:xlink="http://www.w3.org/1999/xlink" viewBox="0 0 1352.44 235.64"><defs><style>.cls-1,.cls-11,.cls-8{fill:none;}.cls-2{isolation:isolate;}.cls-3{clip-path:url(#clip-path);}.cls-4{fill:url(#Degradado_sin_nombre_13);}.cls-5{opacity:0.3;fill:url(#Degradado_sin_nombre_25);}.cls-5,.cls-6{mix-blend-mode:color-burn;}.cls-6{opacity:0.45;fill:url(#Degradado_sin_nombre_24);}.cls-10,.cls-11,.cls-7{opacity:0.6;mix-blend-mode:overlay;}.cls-11,.cls-8{stroke:#fff;stroke-miterlimit:10;stroke-width:0.49px;}.cls-10,.cls-9{fill:#fff;}</style><clipPath id="clip-path"><rect class="cls-1" x="-2.56" y="-2.36" width="1357" height="243"/></clipPath><linearGradient id="Degradado_sin_nombre_13" x1="-118.9" y1="58.1" x2="1496.22" y2="1007.83" gradientUnits="userSpaceOnUse"><stop offset="0" stop-color="#487ef1"/><stop offset="0.12" stop-color="#548ff3"/><stop offset="0.72" stop-color="#8cdcff"/></linearGradient><linearGradient id="Degradado_sin_nombre_25" x1="637.19" y1="35.9" x2="662.2" y2="321.74" gradientUnits="userSpaceOnUse"><stop offset="0" stop-color="#568ffc"/><stop offset="0.04" stop-color="#568ffc" stop-opacity="0.94"/><stop offset="0.29" stop-color="#568ffc" stop-opacity="0.61"/><stop offset="0.51" stop-color="#568ffc" stop-opacity="0.35"/><stop offset="0.7" stop-color="#568ffc" stop-opacity="0.16"/><stop offset="0.83" stop-color="#568ffc" stop-opacity="0.04"/><stop offset="0.91" stop-color="#568ffc" stop-opacity="0"/></linearGradient><linearGradient id="Degradado_sin_nombre_24" x1="675.11" y1="302.69" x2="675.11" y2="87.96" gradientUnits="userSpaceOnUse"><stop offset="0.09" stop-color="#568ffc" stop-opacity="0"/><stop offset="0.17" stop-color="#568ffc" stop-opacity="0.04"/><stop offset="0.3" stop-color="#568ffc" stop-opacity="0.16"/><stop offset="0.49" stop-color="#568ffc" stop-opacity="0.35"/><stop offset="0.71" stop-color="#568ffc" stop-opacity="0.61"/><stop offset="0.96" stop-color="#568ffc" stop-opacity="0.94"/><stop offset="1" stop-color="#568ffc"/></linearGradient></defs><title>footerback-07</title><g class="cls-2"><g id="Capa_1" data-name="Capa 1"><g class="cls-3"><rect class="cls-1" x="-9.51" y="-0.5" width="1274.59" height="829.1" rx="12.77"/><path class="cls-4" d="M1465.44-.35H-9V828.76h0l-.21,283.88C158,961.42,608.28,451.55,921.44,424c304.56-26.78,470.89-185.39,544-279.57V-.34Z"/><path class="cls-5" d="M-69,121.07C-18.16,95,65.36,78.35,143.35,86.26c53.69,5.44,101.5,18.38,150.58,29.35S397,135.91,451.78,133.25C571.68,127.42,647.16,68,765.91,58.71,892.24,48.82,1023.77,99.18,1141.62,77c85.12-16.06,127.32-65.35,218.71-72.12V260.66H-69Z"/><path class="cls-6" d="M-10.11,140.18c73.63,5.72,114.43-.17,175.61-15.79,41.08-10.5,75.73-25.44,124.71-30,59.8-5.54,121.6,6.4,167.7,21s85.2,32.51,139.36,43.07c112.46,21.93,256.45,5.49,357.78-22.45,43.84-12.08,83.47-26.24,131.22-36.29S1193.39,84.11,1245.38,91c42.75,5.69,74.2,18.86,114.95,26.17v185.5H-10.11Z"/><g class="cls-7"><line class="cls-8" x1="-51.9" y1="231.36" x2="194.62" y2="-15.16"/></g><g class="cls-7"><line class="cls-8" x1="1037.11" y1="226.06" x2="1238.09" y2="25.08"/><path class="cls-9" d="M1039.3,228a2.95,2.95,0,1,1,0-4.17A3,3,0,0,1,1039.3,228Z"/><path class="cls-9" d="M1240.07,27.26a2.95,2.95,0,1,0-4.16,0A2.93,2.93,0,0,0,1240.07,27.26Z"/></g><g class="cls-7"><line class="cls-8" x1="1070.54" y1="253.36" x2="1271.52" y2="52.38"/><path class="cls-9" d="M1273.5,54.56a2.95,2.95,0,1,0-4.17,0A2.94,2.94,0,0,0,1273.5,54.56Z"/></g><g class="cls-7"><line class="cls-8" x1="-10.16" y1="256.16" x2="169.52" y2="76.49"/><circle class="cls-9" cx="169.41" cy="76.59" r="2.95" transform="translate(59.4 226.47) rotate(-78.05)"/></g><path class="cls-10" d="M482.57,74.51a13.1,13.1,0,1,1-13.1-13.1A13.1,13.1,0,0,1,482.57,74.51Z"/><circle class="cls-11" cx="469.47" cy="74.51" r="25.76"/><path class="cls-10" d="M1120.28,42.36a13.1,13.1,0,1,1-13.09-13.09A13.09,13.09,0,0,1,1120.28,42.36Z"/><circle class="cls-11" cx="1107.19" cy="42.36" r="25.76"/><path class="cls-1" d="M1465-.5H-9.51V828.6h0l5.79,277.12C163.58,954.49,607.82,451.4,921,423.87c304.56-26.77,470.89-185.39,544-279.57V-.5Z"/><rect class="cls-1" x="-9.51" y="-0.5" width="1373.37" height="203.64"/></g></g></g></svg>