<?xml version="1.0" encoding="utf-8"?>
<!-- Generator: Adobe Illustrator 23.0.3, SVG Export Plug-In . SVG Version: 6.00 Build 0)  -->
<svg version="1.1" id="Capa_1" xmlns="http://www.w3.org/2000/svg" xmlns:xlink="http://www.w3.org/1999/xlink" x="0px" y="0px"
	 viewBox="0 0 559 248" style="enable-background:new 0 0 559 248;" xml:space="preserve">
<style type="text/css">
	.st0{fill:none;}
	.st1{fill:url(#SVGID_1_);}
	.st2{fill:url(#SVGID_2_);}
	.st3{fill:url(#SVGID_3_);}
	.st4{fill:url(#SVGID_4_);}
	.st5{fill:url(#SVGID_5_);}
	.st6{fill:url(#SVGID_6_);}
	.st7{fill:url(#SVGID_7_);}
	.st8{fill:url(#SVGID_8_);}
	.st9{fill:url(#SVGID_9_);}
	.st10{fill:url(#SVGID_10_);}
	.st11{fill:url(#SVGID_11_);}
	.st12{fill:url(#SVGID_12_);}
	.st13{fill:url(#SVGID_13_);}
	.st14{fill:url(#SVGID_14_);}
	.st15{fill:url(#SVGID_15_);}
	.st16{fill:url(#SVGID_16_);}
	.st17{fill:url(#SVGID_17_);}
	.st18{fill:url(#SVGID_18_);}
	.st19{fill:url(#SVGID_19_);}
	.st20{clip-path:url(#SVGID_21_);}
	.st21{opacity:0.3;fill:url(#SVGID_22_);}
	.st22{opacity:0.45;fill:url(#SVGID_23_);}
	.st23{opacity:0.6;}
	.st24{fill:none;stroke:#FFFFFF;stroke-width:0.49;stroke-miterlimit:10;}
	.st25{fill:#FFFFFF;}
	.st26{opacity:0.6;fill:#FFFFFF;}
	.st27{opacity:0.6;fill:none;stroke:#FFFFFF;stroke-width:0.49;stroke-miterlimit:10;}
	.st28{opacity:0.26;fill:#0080F9;}
	.st29{fill:url(#SVGID_24_);}
	.st30{fill:url(#SVGID_25_);}
	.st31{fill:url(#SVGID_26_);}
	.st32{fill:url(#SVGID_27_);}
	.st33{fill:url(#SVGID_28_);}
	.st34{fill:url(#SVGID_29_);}
	.st35{fill:url(#SVGID_30_);}
	.st36{fill:url(#SVGID_31_);}
	.st37{fill:url(#SVGID_32_);}
	.st38{fill:url(#SVGID_33_);}
	.st39{fill:url(#SVGID_34_);}
	.st40{fill:url(#SVGID_35_);}
	.st41{fill:url(#SVGID_36_);}
	.st42{fill:url(#SVGID_37_);}
	.st43{fill:url(#SVGID_38_);}
	.st44{fill:url(#SVGID_39_);}
	.st45{fill:url(#SVGID_40_);}
	.st46{fill:url(#SVGID_41_);}
	.st47{fill:url(#SVGID_42_);}
	.st48{clip-path:url(#SVGID_44_);}
	.st49{opacity:0.3;fill:url(#SVGID_45_);}
	.st50{opacity:0.45;fill:url(#SVGID_46_);}
	.st51{fill:#0080F9;}
	.st52{fill:#003260;}
	.st53{clip-path:url(#SVGID_50_);}
	.st54{clip-path:url(#SVGID_50_);fill:url(#SVGID_51_);}
	.st55{opacity:0.3;fill:url(#SVGID_52_);}
	.st56{opacity:0.45;fill:url(#SVGID_53_);}
	.st57{clip-path:url(#SVGID_50_);fill:none;}
	
		.st58{clip-path:url(#SVGID_50_);fill:none;stroke:#FFFFFF;stroke-width:2;stroke-linecap:round;stroke-linejoin:round;stroke-miterlimit:10;}
	.st59{fill:url(#SVGID_54_);}
	.st60{fill:url(#SVGID_55_);}
	.st61{fill:url(#SVGID_56_);}
	.st62{fill:url(#SVGID_57_);}
	.st63{fill:url(#SVGID_58_);}
	.st64{fill:url(#SVGID_59_);}
	.st65{fill:url(#SVGID_60_);}
	.st66{fill:url(#SVGID_61_);}
	.st67{fill:url(#SVGID_62_);}
	.st68{fill:url(#SVGID_63_);}
	.st69{fill:url(#SVGID_64_);}
	.st70{fill:url(#SVGID_65_);}
	.st71{fill:url(#SVGID_66_);}
	.st72{fill:url(#SVGID_67_);}
	.st73{fill:url(#SVGID_68_);}
	.st74{fill:url(#SVGID_69_);}
	.st75{fill:url(#SVGID_70_);}
	.st76{fill:url(#SVGID_71_);}
	.st77{fill:url(#SVGID_72_);}
	.st78{clip-path:url(#SVGID_74_);}
	.st79{opacity:0.3;fill:url(#SVGID_75_);}
	.st80{opacity:0.45;fill:url(#SVGID_76_);}
	.st81{fill:#B5B5B5;}
	.st82{fill:none;stroke:url(#SVGID_77_);stroke-width:4;stroke-miterlimit:10;}
	.st83{fill:none;stroke:url(#SVGID_78_);stroke-width:4;stroke-linecap:round;stroke-linejoin:round;stroke-miterlimit:10;}
	.st84{fill:none;stroke:url(#SVGID_79_);stroke-width:4;stroke-linecap:round;stroke-linejoin:round;stroke-miterlimit:10;}
	.st85{fill:#F7F7F7;}
	.st86{fill:url(#SVGID_80_);}
	.st87{fill:url(#SVGID_81_);}
	.st88{fill:url(#SVGID_82_);}
	.st89{clip-path:url(#SVGID_86_);}
	.st90{clip-path:url(#SVGID_86_);fill:url(#SVGID_87_);}
	.st91{opacity:0.3;fill:url(#SVGID_88_);}
	.st92{opacity:0.45;fill:url(#SVGID_89_);}
	.st93{clip-path:url(#SVGID_86_);fill:none;}
	
		.st94{clip-path:url(#SVGID_86_);fill:none;stroke:#FFFFFF;stroke-width:2;stroke-linecap:round;stroke-linejoin:round;stroke-miterlimit:10;}
	.st95{fill:#2E3B5D;}
	.st96{fill:#7EC9FC;}
	.st97{clip-path:url(#SVGID_91_);}
</style>
<g>
	<path class="st25" d="M26.85,179.7c0.95-1.93,2.45-6.82,5.38-10.63c13.49-17.56,13.62-30.75-0.16-48.72
		c-8.29-10.8-6.73-24.49,3.57-31.34c9.7-6.45,23.18-3.58,29.35,6.49c4.88,7.97,3.91,15.71-1.46,23.22
		c-15.78,22.04-15.72,29.62,0.1,51.98c5.9,8.34,6.13,16.83-0.01,25.03c-5.91,7.9-14.25,9.96-23.19,6.92
		C31.34,199.58,26.59,192.62,26.85,179.7z"/>
	<path class="st25" d="M68.3,56.16C68.09,67.21,58.18,76.55,46.94,76.3c-11.44-0.26-20.35-9.64-20.13-21.17
		c0.22-11.66,9.38-20.36,21.11-20.07C59.31,35.34,68.52,44.88,68.3,56.16z"/>
	<path class="st25" d="M109.58,143.06c-0.22,11.05-10.12,20.39-21.36,20.14c-11.44-0.26-20.35-9.64-20.13-21.17
		c0.22-11.66,9.38-20.36,21.11-20.07C100.59,122.25,109.8,131.78,109.58,143.06z"/>
	<g>
		<path class="st95" d="M149.55,153.86v17.74c0,1.13-0.21,2.2-0.64,3.19c-0.42,0.99-1.01,1.85-1.75,2.58
			c-0.74,0.73-1.62,1.29-2.63,1.7c-1.01,0.41-2.08,0.61-3.21,0.61s-2.2-0.2-3.19-0.61c-0.99-0.41-1.86-0.97-2.6-1.7
			c-0.74-0.73-1.33-1.58-1.75-2.58c-0.42-0.99-0.64-2.05-0.64-3.19v-51.84c0-1.13,0.21-2.19,0.64-3.16
			c0.42-0.97,1.01-1.82,1.75-2.55c0.74-0.73,1.61-1.3,2.6-1.73c0.99-0.43,2.05-0.64,3.19-0.64h0.32h17.31c2.9,0,5.65,0.57,8.23,1.7
			c2.58,1.13,4.83,2.66,6.75,4.59c1.91,1.93,3.43,4.18,4.54,6.74c1.12,2.57,1.67,5.28,1.67,8.15c0,2.9-0.56,5.63-1.67,8.18
			s-2.63,4.77-4.54,6.67c-1.91,1.89-4.16,3.39-6.75,4.49c-2.58,1.1-5.33,1.65-8.23,1.65H149.55z M149.55,127.89v9.61H159
			c0.53,0,1.08-0.14,1.65-0.43c0.57-0.28,1.08-0.66,1.54-1.14c0.46-0.48,0.83-1.03,1.12-1.65c0.28-0.62,0.42-1.25,0.42-1.89
			c0-0.6-0.14-1.18-0.42-1.73c-0.28-0.55-0.66-1.03-1.12-1.43c-0.46-0.41-0.97-0.73-1.51-0.98c-0.55-0.25-1.09-0.37-1.62-0.37
			H149.55z"/>
		<path class="st95" d="M206.69,163.31l16.09,0.11c1.13,0,2.19,0.21,3.19,0.64c0.99,0.42,1.85,1.01,2.58,1.75s1.3,1.61,1.73,2.6
			c0.42,0.99,0.64,2.05,0.64,3.19c0,1.13-0.21,2.2-0.64,3.19c-0.42,0.99-1,1.86-1.73,2.6s-1.58,1.32-2.58,1.73
			c-0.99,0.41-2.05,0.59-3.19,0.56h-24.33c-0.85,0-1.61-0.11-2.28-0.32c-1.84-0.5-3.31-1.5-4.41-3.03
			c-1.06-1.38-1.59-2.99-1.59-4.83c0-0.21,0-0.43,0-0.66c0-0.23,0.04-0.45,0.11-0.66v-50.4c0-1.13,0.21-2.19,0.64-3.19
			c0.42-0.99,1.01-1.85,1.75-2.58c0.74-0.73,1.61-1.29,2.6-1.7c0.99-0.41,2.05-0.61,3.19-0.61s2.2,0.2,3.21,0.61
			c1.01,0.41,1.88,0.97,2.63,1.7c0.74,0.73,1.33,1.58,1.75,2.58c0.42,0.99,0.64,2.05,0.64,3.19V163.31z"/>
		<path class="st95" d="M274.19,164.22h-21.3l-4.2,10.52c-0.42,1.1-1.04,2.02-1.86,2.76c-0.82,0.74-1.73,1.29-2.74,1.65
			c-1.01,0.35-2.07,0.52-3.19,0.5c-1.12-0.02-2.2-0.26-3.27-0.72c-1.1-0.46-2-1.08-2.71-1.86c-0.71-0.78-1.22-1.65-1.54-2.63
			c-0.32-0.97-0.45-2-0.4-3.08c0.05-1.08,0.33-2.15,0.82-3.21l22.47-51.46c0.71-1.59,1.72-2.82,3.03-3.69
			c1.31-0.87,2.82-1.3,4.51-1.3c1.59,0,3.04,0.42,4.36,1.27c1.31,0.85,2.3,2.07,2.97,3.66l22.09,51.46c0.46,1.06,0.72,2.13,0.8,3.21
			c0.07,1.08-0.04,2.11-0.34,3.08c-0.3,0.97-0.8,1.86-1.49,2.66c-0.69,0.8-1.57,1.43-2.63,1.89c-1.06,0.46-2.14,0.7-3.24,0.72
			c-1.1,0.02-2.14-0.16-3.13-0.53c-0.99-0.37-1.89-0.93-2.71-1.67c-0.81-0.74-1.47-1.65-1.96-2.71L274.19,164.22z M259.43,147.81
			h8.02l-4.09-9.88L259.43,147.81z"/>
		<path class="st95" d="M318.49,143.88v27.72c0,1.13-0.21,2.2-0.64,3.19c-0.42,0.99-1.01,1.85-1.75,2.58
			c-0.74,0.73-1.62,1.29-2.63,1.7c-1.01,0.41-2.08,0.61-3.21,0.61s-2.2-0.2-3.19-0.61c-0.99-0.41-1.86-0.97-2.6-1.7
			c-0.74-0.73-1.33-1.58-1.75-2.58c-0.42-0.99-0.64-2.05-0.64-3.19v-51.57c0-1.13,0.21-2.19,0.64-3.19
			c0.42-0.99,1.01-1.85,1.75-2.58c0.74-0.73,1.61-1.29,2.6-1.7c0.99-0.41,2.05-0.61,3.19-0.61h0.11c0.46,0,0.96,0.05,1.49,0.16
			c1.13,0.21,2.18,0.65,3.13,1.3c0.96,0.66,1.73,1.46,2.34,2.42l23.58,32.03v-28.1c0-1.13,0.22-2.19,0.66-3.19
			c0.44-0.99,1.04-1.85,1.81-2.58c0.76-0.73,1.65-1.29,2.66-1.7c1.01-0.41,2.08-0.61,3.21-0.61c1.13,0,2.19,0.2,3.16,0.61
			c0.97,0.41,1.82,0.97,2.55,1.7c0.73,0.73,1.3,1.58,1.73,2.58c0.42,0.99,0.64,2.05,0.64,3.19v51.84c0,1.84-0.53,3.45-1.59,4.83
			s-2.43,2.34-4.09,2.87c-0.32,0.11-0.66,0.19-1.04,0.27c-0.37,0.07-0.75,0.11-1.14,0.11h-0.32h-0.16c-1.13,0-2.19-0.21-3.16-0.64
			s-1.82-1-2.55-1.73c-0.73-0.73-1.3-1.58-1.73-2.55c-0.42-0.97-0.64-2.03-0.64-3.16v-23.74l13.81,18.75
			c0.67,1.03,1.1,2.19,1.27,3.48c0.18,1.29,0.13,2.55-0.13,3.77c-0.27,1.22-0.75,2.33-1.46,3.32c-0.71,0.99-1.63,1.7-2.76,2.12
			c-0.35,0.11-0.71,0.19-1.06,0.27c-0.35,0.07-0.73,0.11-1.12,0.11h-0.32h-0.16c-0.53-0.03-1.1-0.12-1.7-0.27
			c-0.6-0.14-1.2-0.35-1.78-0.61s-1.14-0.58-1.67-0.96c-0.53-0.37-0.96-0.8-1.28-1.3L318.49,143.88z"/>
		<path class="st95" d="M385.78,143.88v27.72c0,1.13-0.21,2.2-0.64,3.19c-0.42,0.99-1.01,1.85-1.75,2.58
			c-0.74,0.73-1.62,1.29-2.63,1.7c-1.01,0.41-2.08,0.61-3.21,0.61s-2.2-0.2-3.19-0.61c-0.99-0.41-1.86-0.97-2.6-1.7
			c-0.74-0.73-1.33-1.58-1.75-2.58c-0.42-0.99-0.64-2.05-0.64-3.19v-51.57c0-1.13,0.21-2.19,0.64-3.19
			c0.42-0.99,1.01-1.85,1.75-2.58c0.74-0.73,1.61-1.29,2.6-1.7c0.99-0.41,2.05-0.61,3.19-0.61h0.11c0.46,0,0.96,0.05,1.49,0.16
			c1.13,0.21,2.18,0.65,3.13,1.3c0.96,0.66,1.73,1.46,2.34,2.42l23.58,32.03v-28.1c0-1.13,0.22-2.19,0.66-3.19
			c0.44-0.99,1.04-1.85,1.81-2.58c0.76-0.73,1.65-1.29,2.66-1.7c1.01-0.41,2.08-0.61,3.21-0.61c1.13,0,2.19,0.2,3.16,0.61
			c0.97,0.41,1.82,0.97,2.55,1.7c0.73,0.73,1.3,1.58,1.73,2.58c0.42,0.99,0.64,2.05,0.64,3.19v51.84c0,1.84-0.53,3.45-1.59,4.83
			s-2.43,2.34-4.09,2.87c-0.32,0.11-0.66,0.19-1.04,0.27c-0.37,0.07-0.75,0.11-1.14,0.11h-0.32h-0.16c-1.13,0-2.19-0.21-3.16-0.64
			s-1.82-1-2.55-1.73c-0.73-0.73-1.3-1.58-1.73-2.55c-0.42-0.97-0.64-2.03-0.64-3.16v-23.74L422,166.61
			c0.67,1.03,1.1,2.19,1.27,3.48c0.18,1.29,0.13,2.55-0.13,3.77c-0.27,1.22-0.75,2.33-1.46,3.32c-0.71,0.99-1.63,1.7-2.76,2.12
			c-0.35,0.11-0.71,0.19-1.06,0.27c-0.35,0.07-0.73,0.11-1.12,0.11h-0.32h-0.16c-0.53-0.03-1.1-0.12-1.7-0.27
			c-0.6-0.14-1.2-0.35-1.78-0.61s-1.14-0.58-1.67-0.96c-0.53-0.37-0.96-0.8-1.28-1.3L385.78,143.88z"/>
		<path class="st95" d="M444.2,179.67c-1.06-0.11-2.05-0.37-2.97-0.8c-0.92-0.42-1.72-0.99-2.39-1.7c-0.67-0.71-1.2-1.53-1.59-2.47
			c-0.39-0.94-0.58-1.96-0.58-3.05v-51.78c0-1.1,0.21-2.14,0.64-3.13c0.42-0.99,1-1.86,1.73-2.6c0.73-0.74,1.58-1.34,2.58-1.78
			c0.99-0.44,2.07-0.66,3.24-0.66h25.39c1.13,0,2.2,0.21,3.19,0.64c0.99,0.42,1.85,1.01,2.58,1.75s1.29,1.61,1.7,2.6
			c0.41,0.99,0.61,2.05,0.61,3.19c0,1.13-0.2,2.2-0.61,3.21c-0.41,1.01-0.97,1.89-1.7,2.63c-0.73,0.74-1.58,1.33-2.58,1.75
			c-0.99,0.42-2.05,0.64-3.19,0.64h-17.15v9.77h11.68c1.13-0.03,2.19,0.15,3.19,0.56c0.99,0.41,1.86,0.98,2.6,1.73
			c0.74,0.74,1.34,1.61,1.78,2.6c0.44,0.99,0.66,2.05,0.66,3.19c0,1.13-0.22,2.19-0.66,3.16c-0.44,0.97-1.04,1.81-1.78,2.5
			c-0.74,0.69-1.61,1.23-2.6,1.62c-0.99,0.39-2.05,0.58-3.19,0.58h-11.68v9.51h17.15c1.13,0,2.2,0.22,3.19,0.66
			c0.99,0.44,1.85,1.04,2.58,1.78s1.29,1.62,1.7,2.63c0.41,1.01,0.61,2.08,0.61,3.21c0,1.13-0.2,2.2-0.61,3.19
			c-0.41,0.99-0.97,1.86-1.7,2.6s-1.58,1.32-2.58,1.73c-0.99,0.41-2.05,0.59-3.19,0.56H444.2z"/>
		<path class="st95" d="M534.27,132.88c0,1.91-0.25,3.74-0.74,5.5c-0.5,1.75-1.19,3.4-2.07,4.94s-1.95,2.94-3.19,4.2
			c-1.24,1.26-2.62,2.35-4.14,3.27l8.87,16.78c0.57,0.99,0.9,2.02,1.01,3.08s0.01,2.09-0.29,3.08c-0.3,0.99-0.78,1.91-1.43,2.76
			c-0.66,0.85-1.46,1.54-2.42,2.07c-0.99,0.57-2.03,0.91-3.11,1.04s-2.12,0.05-3.11-0.21c-0.99-0.27-1.91-0.72-2.76-1.35
			s-1.56-1.45-2.13-2.44l-11.63-21.72h-3.45v17.74c0,1.13-0.21,2.2-0.64,3.19c-0.42,0.99-1.01,1.85-1.75,2.58
			c-0.74,0.73-1.62,1.29-2.63,1.7c-1.01,0.41-2.08,0.61-3.21,0.61s-2.2-0.2-3.19-0.61c-0.99-0.41-1.86-0.97-2.6-1.7
			c-0.74-0.73-1.33-1.58-1.75-2.58c-0.42-0.99-0.64-2.05-0.64-3.19v-51.84c0-1.13,0.21-2.19,0.64-3.16
			c0.42-0.97,1.01-1.82,1.75-2.55c0.74-0.73,1.61-1.3,2.6-1.73c0.99-0.43,2.05-0.64,3.19-0.64h0.32h17.31c2.9,0,5.65,0.57,8.23,1.7
			c2.58,1.13,4.83,2.66,6.75,4.59c1.91,1.93,3.43,4.18,4.54,6.74C533.72,127.3,534.27,130.01,534.27,132.88z M503.68,127.89v9.61
			h9.45c0.53,0,1.08-0.14,1.65-0.43c0.57-0.28,1.08-0.66,1.54-1.14c0.46-0.48,0.83-1.03,1.12-1.65c0.28-0.62,0.42-1.25,0.42-1.89
			c0-0.6-0.14-1.18-0.42-1.73c-0.28-0.55-0.66-1.03-1.12-1.43c-0.46-0.41-0.97-0.73-1.51-0.98c-0.55-0.25-1.09-0.37-1.62-0.37
			H503.68z"/>
	</g>
</g>
</svg>
