<?xml version="1.0" encoding="utf-8"?>
<!-- Generator: Adobe Illustrator 23.0.3, SVG Export Plug-In . SVG Version: 6.00 Build 0)  -->
<svg version="1.1" id="Capa_1" xmlns="http://www.w3.org/2000/svg" xmlns:xlink="http://www.w3.org/1999/xlink" x="0px" y="0px"
	 viewBox="0 0 48 49.71" style="enable-background:new 0 0 48 49.71;" xml:space="preserve">
<style type="text/css">
	.st0{fill:#FFFFFF;}
</style>
<g>
	<g>
		<path class="st0" d="M23.83,44.21c-10.67,0-19.36-8.68-19.36-19.36S13.16,5.5,23.83,5.5s19.36,8.68,19.36,19.36
			S34.51,44.21,23.83,44.21z M23.83,6.5c-10.12,0-18.36,8.23-18.36,18.36s8.23,18.36,18.36,18.36c10.12,0,18.36-8.23,18.36-18.36
			S33.96,6.5,23.83,6.5z"/>
	</g>
	<g>
		<path class="st0" d="M25.41,12.95c0.24,0,0.45,0.09,0.63,0.26s0.26,0.39,0.26,0.63v2.58c0,0.24-0.09,0.45-0.26,0.63
			s-0.39,0.26-0.63,0.26h-2.84c-0.24,0-0.45-0.09-0.63-0.26s-0.26-0.39-0.26-0.63v-2.58c0-0.24,0.09-0.45,0.26-0.63
			s0.39-0.26,0.63-0.26H25.41z M26.13,35.54c0,0.24-0.09,0.45-0.26,0.63c-0.18,0.18-0.39,0.26-0.63,0.26h-2.51
			c-0.24,0-0.45-0.09-0.63-0.26c-0.18-0.18-0.26-0.39-0.26-0.63V20.12c0-0.24,0.09-0.45,0.26-0.63c0.18-0.18,0.39-0.26,0.63-0.26
			h2.51c0.24,0,0.45,0.09,0.63,0.26c0.18,0.18,0.26,0.39,0.26,0.63V35.54z"/>
	</g>
</g>
</svg>
